<?xml version="1.0" encoding="utf-8"?>
<svg id="Groupe_43" data-name="Groupe 43" xmlns="http://www.w3.org/2000/svg" width="74.505" height="102.448" viewBox="0 0 74.505 102.448">
  <rect id="Rectangle_31" data-name="Rectangle 31" width="74.505" height="102.448" fill="#fff"/>
  <g id="Groupe_40" data-name="Groupe 40" transform="translate(7.188 87.786)">
    <path id="Tracé_201" data-name="Tracé 201" d="M7.059,45.875H3.709a.535.535,0,0,1-.579-.528.52.52,0,0,1,.579-.517h3.35a.855.855,0,0,0,.9-.813v-.8a.857.857,0,0,0-.9-.815h-1.8a1.972,1.972,0,0,1-2.078-1.844v-.48a1.975,1.975,0,0,1,2.078-1.846H8.483a.519.519,0,0,1,.579.517.533.533,0,0,1-.579.528H5.261a.86.86,0,0,0-.912.8v.48a.86.86,0,0,0,.912.8h1.8a1.971,1.971,0,0,1,2.064,1.858v.8a1.971,1.971,0,0,1-2.064,1.858" transform="translate(-3.13 -38.228)" fill="#651f59"/>
    <path id="Tracé_202" data-name="Tracé 202" d="M10.409,45.875H8.549a1.986,1.986,0,0,1-2.081-1.858V38.745a.537.537,0,0,1,.59-.517.518.518,0,0,1,.576.517v5.272a.871.871,0,0,0,.914.813h1.86a.858.858,0,0,0,.9-.813V38.745a.536.536,0,0,1,.59-.517.52.52,0,0,1,.579.517v5.272a1.976,1.976,0,0,1-2.069,1.858" transform="translate(1.197 -38.228)" fill="#651f59"/>
    <path id="Tracé_203" data-name="Tracé 203" d="M15.283,45.875a.571.571,0,0,1-.475-.23l-2.489-3.4a.623.623,0,0,1-.165-.377c0-.388.333-.517.7-.517h.951a.849.849,0,0,0,.9-.8v-.48a.849.849,0,0,0-.9-.8H11.944a.86.86,0,0,0-.909.8v5.272a.586.586,0,0,1-1.167,0V40.074a1.975,1.975,0,0,1,2.076-1.846h1.865a1.964,1.964,0,0,1,2.064,1.846v.48A1.954,1.954,0,0,1,13.82,42.4l1.963,2.664a.5.5,0,0,1,.1.3.58.58,0,0,1-.6.517" transform="translate(5.605 -38.228)" fill="#651f59"/>
    <path id="Tracé_204" data-name="Tracé 204" d="M15.668,41.253H13.436a.511.511,0,0,1-.556-.505.5.5,0,0,1,.556-.494h2.232a.494.494,0,0,1,.551.494.508.508,0,0,1-.551.505" transform="translate(9.51 -35.602)" fill="#651f59"/>
    <path id="Tracé_205" data-name="Tracé 205" d="M18.6,45.875H15.246a.533.533,0,0,1-.576-.528.518.518,0,0,1,.576-.517H18.6a.858.858,0,0,0,.9-.813v-.8a.86.86,0,0,0-.9-.815H16.8a1.974,1.974,0,0,1-2.081-1.844v-.48A1.977,1.977,0,0,1,16.8,38.228h3.222a.518.518,0,0,1,.576.517.533.533,0,0,1-.576.528H16.8a.859.859,0,0,0-.912.8v.48a.859.859,0,0,0,.912.8h1.8a1.973,1.973,0,0,1,2.064,1.858v.8A1.973,1.973,0,0,1,18.6,45.875" transform="translate(11.83 -38.228)" fill="#651f59"/>
    <path id="Tracé_206" data-name="Tracé 206" d="M23.246,45.875h-3.16a1.986,1.986,0,0,1-2.078-1.858V40.074a1.977,1.977,0,0,1,2.078-1.846h3.1a.526.526,0,1,1,0,1.045h-3.1a.86.86,0,0,0-.912.8v1.281h3.7a.526.526,0,1,1,0,1.043h-3.7v1.619a.869.869,0,0,0,.912.813h3.16a.526.526,0,1,1,0,1.045" transform="translate(16.157 -38.228)" fill="#651f59"/>
    <path id="Tracé_207" data-name="Tracé 207" d="M23.973,45.875H21.741a.535.535,0,0,1-.581-.517c0-.609.643-.528,1.118-.528V39.273c-.459,0-1.118.078-1.118-.517a.535.535,0,0,1,.581-.528h2.232a.54.54,0,0,1,.592.528c0,.595-.657.517-1.118.517V44.83h.526a.539.539,0,0,1,.592.528.533.533,0,0,1-.592.517" transform="translate(20.244 -38.228)" fill="#651f59"/>
    <path id="Tracé_208" data-name="Tracé 208" d="M28.863,45.875a.747.747,0,0,1-.551-.322L24.55,40.577v4.77a.594.594,0,0,1-1.18,0v-6.51a.555.555,0,0,1,.526-.609.763.763,0,0,1,.551.319L28.222,43.6V38.756a.533.533,0,0,1,.576-.528.54.54,0,0,1,.59.528v6.51a.556.556,0,0,1-.526.609" transform="translate(23.109 -38.228)" fill="#651f59"/>
    <path id="Tracé_209" data-name="Tracé 209" d="M32.012,45.875h-3.16a1.986,1.986,0,0,1-2.078-1.858V40.074a1.977,1.977,0,0,1,2.078-1.846h3.1a.526.526,0,1,1,0,1.045h-3.1a.86.86,0,0,0-.909.8v1.281h3.7a.525.525,0,1,1,0,1.043h-3.7v1.619a.868.868,0,0,0,.909.813h3.16a.526.526,0,1,1,0,1.045" transform="translate(27.521 -38.228)" fill="#651f59"/>
  </g>
  <path id="Tracé_210" data-name="Tracé 210" d="M20.619,21.783l9.215.009-4.018,0-4.61,0Z" transform="translate(26.73 28.238)" fill="#bdbdbd"/>
  <g id="Groupe_41" data-name="Groupe 41" transform="translate(7.195 29.18)">
    <path id="Tracé_211" data-name="Tracé 211" d="M14.135,19.752a3.588,3.588,0,1,0-4.542-3.47,3.591,3.591,0,0,0,2.792,3.47v4.3a54.255,54.255,0,0,0-5.934-.462V20.946a2.671,2.671,0,0,0-.572-5.293,2.67,2.67,0,0,0-.572,5.293v2.622c-1.316-.016-2.175.009-2.175.009v4.1H9.294a34.908,34.908,0,0,1,8.474,1.059l.175-2.985a10.607,10.607,0,0,0-3.807-1.4Z" transform="translate(-3.133 -12.707)" fill="#b1a9c0"/>
    <path id="Tracé_212" data-name="Tracé 212" d="M20.4,21.782" transform="translate(19.246 -0.942)" fill="#bdbdbd"/>
  </g>
  <path id="Tracé_213" data-name="Tracé 213" d="M20.909,21.784l-.514,0Z" transform="translate(26.44 28.238)" fill="#bdbdbd"/>
  <g id="Groupe_42" data-name="Groupe 42" transform="translate(7.195 7.011)">
    <path id="Tracé_214" data-name="Tracé 214" d="M32.2,23.285a12.991,12.991,0,0,0-2.074-.021c-1.559.108-3.511.558-4.016,2.067,0,0-3.424-.028-4.611,1.148A3.432,3.432,0,0,0,20.4,28.5h0l9.727.011,2.023,0c.087-.3,3.5-5.69,8.745-6.6v-5.3c-.59-.147-8.694,3.86-8.694,6.68" transform="translate(19.246 14.511)" fill="#d8d4df"/>
    <path id="Tracé_215" data-name="Tracé 215" d="M22.271,18.133l1.855-1.212L23.435,3.053H20l-2.06,35.21-.172,2.985A35.021,35.021,0,0,0,9.294,40.19H3.133v6.253H9.294V43.662L24.37,41.7V26.949l-.976-.8V23.229h.976V22.106l-2.1-1.516Z" transform="translate(-3.133 -3.053)" fill="#d8d4df"/>
    <path id="Tracé_216" data-name="Tracé 216" d="M40.669,25.515l-2.023,0-4.016,0-4.611,0-1.1,0H27.559l-2.958,0a11.256,11.256,0,0,0-1.653.124,10.691,10.691,0,0,0-2.459.673l-.119.048a11,11,0,0,0-2.188,1.226,8.342,8.342,0,0,0-2.3-2.161,16.113,16.113,0,0,0-2.055-1.141v7.658a6.356,6.356,0,0,1,3.539,1.895,11.1,11.1,0,0,1,2.186-1.226,10.877,10.877,0,0,1,4.235-.84l17.831.016c1.162-5.883,7.142-6.754,7.8-6.88V18.913c-5.252.914-8.657,6.3-8.747,6.6" transform="translate(10.724 17.507)" fill="#b1a9c0"/>
  </g>
  <path id="Tracé_217" data-name="Tracé 217" d="M3.133,52.077h9.534V48.915H6.378V39.23h3.646V36.068H6.378v-8.9h6.289V24H3.133Z" transform="translate(4.062 31.119)" fill="#651f59"/>
  <path id="Tracé_218" data-name="Tracé 218" d="M7.861,54.866h3.245V21.853l-3.245.38Z" transform="translate(10.19 28.33)" fill="#651f59"/>
  <path id="Tracé_219" data-name="Tracé 219" d="M18.282,49.862A2.073,2.073,0,0,1,17.5,51.5,2.648,2.648,0,0,1,14,51.5a2.09,2.09,0,0,1-.762-1.64v-11.6A2.115,2.115,0,0,1,14,36.644a2.595,2.595,0,0,1,3.507,0,2.1,2.1,0,0,1,.781,1.621ZM20.025,34.4a5.1,5.1,0,0,0-1.683-1.171,5.654,5.654,0,0,0-4.067-.1,1.85,1.85,0,0,0-1.043.762V21.617L9.988,22V55.172h2.165l.719-1.054a3.044,3.044,0,0,0,1.2.822,5.351,5.351,0,0,0,2.163.388,5.107,5.107,0,0,0,3.787-1.6,5.454,5.454,0,0,0,1.1-1.738,5.642,5.642,0,0,0,.4-2.126v-11.6a5.642,5.642,0,0,0-.4-2.126,5.454,5.454,0,0,0-1.1-1.738" transform="translate(12.948 28.024)" fill="#651f59"/>
  <path id="Tracé_220" data-name="Tracé 220" d="M18.885,31.954a2.221,2.221,0,0,1,.682-1.621,2.291,2.291,0,0,1,1.683-.682,2.377,2.377,0,0,1,1.66.643,3.017,3.017,0,0,1,.7,2.285,9.4,9.4,0,0,1-.22,2.147,4.814,4.814,0,0,1-.861,1.8,8.194,8.194,0,0,1-1.421,1.366,12.967,12.967,0,0,1-2.225,1.33Zm3.826,8.765a9.791,9.791,0,0,0,2.5-2.244,7.724,7.724,0,0,0,1.245-2.56,13.1,13.1,0,0,0,.4-3.49,6.637,6.637,0,0,0-.441-2.5,5.526,5.526,0,0,0-1.2-1.855,5.182,5.182,0,0,0-1.78-1.169,5.827,5.827,0,0,0-2.184-.413,5.556,5.556,0,0,0-2.184.432,5.757,5.757,0,0,0-1.784,1.171,5.554,5.554,0,0,0-1.2,1.738,5.194,5.194,0,0,0-.441,2.126V43.9a5.442,5.442,0,0,0,1.582,3.865A5.479,5.479,0,0,0,26.617,43.9V42.494L23.374,43.55V43.9a2.271,2.271,0,0,1-.643,1.642,2.287,2.287,0,0,1-3.226,0,2.311,2.311,0,0,1-.62-1.642V42.848a39.471,39.471,0,0,0,3.826-2.129" transform="translate(20.275 34.336)" fill="#651f59"/>
  <path id="Tracé_221" data-name="Tracé 221" d="M28.965,43.285a2.239,2.239,0,0,1-.661,1.64,2.346,2.346,0,0,1-3.265,0,2.266,2.266,0,0,1-.638-1.64V26.691H21.153V43.285a5.923,5.923,0,0,0,.423,2.3,5.031,5.031,0,0,0,1.141,1.72,4.926,4.926,0,0,0,1.66,1.075,5.351,5.351,0,0,0,1.984.37,4.023,4.023,0,0,0,1.963-.39,3.236,3.236,0,0,0,1-.82l.719,1.056H32.21V26.691H28.965Z" transform="translate(27.422 34.601)" fill="#651f59"/>
  <path id="Tracé_222" data-name="Tracé 222" d="M33.593,23.5a5.583,5.583,0,0,0-2.182.427A5.67,5.67,0,0,0,29.627,25.1a5.437,5.437,0,0,0-1.2,1.736,5.126,5.126,0,0,0-.443,2.129v1.874H26.543v2.772h1.442V52.739h3.247V33.606h1.642V30.834H31.232V28.96a2.2,2.2,0,0,1,.677-1.642,2.327,2.327,0,0,1,1.683-.661c.11,0,.211.009.31.018l.524-3.141a6.115,6.115,0,0,0-.834-.039" transform="translate(34.41 30.458)" fill="#651f59"/>
  <path id="Tracé_223" data-name="Tracé 223" d="M36.907,35.057c.507-1.509,2.457-1.959,4.016-2.067V18.266l1.006-.673V16.519H40.924v-2.76L43,12.084V11.023l-1.224-.776H37.415l-1.3.776v3.892L27.531,9.1l-8.584,5.817V11.023l-1.3-.776H13.289l-1.224.776v1.061l2.071,1.674v2.76H13.131v1.075l1.006.673v15.42l1.963-.255v3.555a10.934,10.934,0,0,1,4.361,3.3,10.964,10.964,0,0,1,2.186-1.224,10.835,10.835,0,0,1,4.232-.843l4.317,0a3.445,3.445,0,0,1,1.1-2.019c1.187-1.173,4.611-1.148,4.611-1.148" transform="translate(15.641 11.796)" fill="#8a7fa0"/>
  <path id="Tracé_224" data-name="Tracé 224" d="M18.556,19.588h1.222v1.226H18.556Zm0-2.6h1.222v2H18.556Zm1.222-1.911v1.311H18.57a1.547,1.547,0,0,1,1.208-1.311m.615,4.51h1.256v1.226H20.393Zm0-2.6h1.256v2H20.393Zm0-1.917a1.549,1.549,0,0,1,1.24,1.318h-1.24Zm2.014,16.405V16.587a2.306,2.306,0,0,0-4.611,0V31.594a11.256,11.256,0,0,1,1.653-.119Z" transform="translate(23.07 18.541)" fill="#fff"/>
  <path id="Tracé_225" data-name="Tracé 225" d="M15.477,19.586H16.7v1.226H15.477Zm0-2.6H16.7v2H15.477ZM16.7,15.078v1.311H15.491A1.544,1.544,0,0,1,16.7,15.078m.615,4.508H18.57v1.226H17.312Zm0-2.6H18.57v2H17.312Zm0-1.917a1.549,1.549,0,0,1,1.245,1.318H17.312Zm-.292,18.47a11.112,11.112,0,0,1,2.188-1.224c.037-.018.078-.03.119-.048V16.587a2.306,2.306,0,0,0-4.611,0v14.8a8.3,8.3,0,0,1,2.3,2.156" transform="translate(19.079 18.541)" fill="#fff"/>
  <path id="Tracé_226" data-name="Tracé 226" d="M16.915,14.372a.744.744,0,1,0,.746-.728.738.738,0,0,0-.746.728" transform="translate(21.928 17.688)" fill="#d8d4df"/>
  <path id="Tracé_227" data-name="Tracé 227" d="M20.036,14.372a.745.745,0,1,0,.744-.728.736.736,0,0,0-.744.728" transform="translate(25.974 17.688)" fill="#d8d4df"/>
  <path id="Tracé_228" data-name="Tracé 228" d="M22.852,13.386c.271.9,1.954,1.4,1.954,1.4s1.681-.5,1.954-1.4a22.576,22.576,0,0,1,8.685,5.766v-.273c-.87-1.378-3.49-4.476-10.639-7.571-7.151,3.1-9.769,6.193-10.639,7.571v.273a22.559,22.559,0,0,1,8.685-5.766" transform="translate(18.366 14.659)" fill="#d8d4df"/>
  <path id="Tracé_229" data-name="Tracé 229" d="M24.728,18.991H23.5v-2h1.224Zm0,1.821H23.5V19.586h1.224ZM23.5,15.078a1.544,1.544,0,0,1,1.208,1.311H23.5Zm-.615,1.311H21.647a1.552,1.552,0,0,1,1.242-1.318Zm0,2.6H21.633v-2h1.256Zm0,1.821H21.633V19.586h1.256Zm2.6,7.5V16.587a2.306,2.306,0,0,0-4.611,0V29.46c1.187-1.173,4.611-1.148,4.611-1.148" transform="translate(27.062 18.541)" fill="#fff"/>
</svg>
