<?xml version="1.0" encoding="utf-8"?>
<svg xmlns="http://www.w3.org/2000/svg" width="293.837" height="182.823" viewBox="0 0 293.837 182.823">
    <g id="LOGO" transform="translate(0.871 -30)">
      <path id="_1E004B" data-name="#1E004B" d="M20.55,26.848,314.386,0V152.542L20.55,182.823Z" transform="translate(-21.421 30)" fill="#651f59"/>
      <g id="Groupe_60" data-name="Groupe 60" transform="translate(-11.807 -219.172)">
        <path id="Tracé_289" data-name="Tracé 289" d="M84.05,366.158l142.2-14.986.131,29.709-142.2,14.986Z" fill="#cb5c2f"/>
        <g id="Groupe_57" data-name="Groupe 57" transform="translate(93.43 359.859)">
          <g id="Groupe_56" data-name="Groupe 56" transform="translate(0 0)">
            <path id="Tracé_290" data-name="Tracé 290" d="M108.14,396.548l.008,1.622-3.917.412.026,5.768,4.81-.506.007,1.644-6.6.7-.072-16.213,6.6-.7.008,1.644-4.811.506.024,5.535Zm-.183-10.455-2.119,2.611-1.237.13,1.593-2.554Z" transform="translate(-102.405 -376.933)" fill="#fff"/>
            <path id="Tracé_291" data-name="Tracé 291" d="M125.524,394.612l.007,1.46-1.7.179-.007-1.553c-.007-1.459-.583-2.279-1.888-2.141-1.283.135-1.875,1.078-1.868,2.537l.038,8.57c.006,1.459.606,2.275,1.888,2.141,1.306-.138,1.875-1.078,1.868-2.537l-.009-2.108,1.695-.179.009,2.016c.01,2.456-1.128,4.2-3.6,4.457-2.451.258-3.6-1.242-3.614-3.7l-.037-8.385c-.011-2.455,1.127-4.2,3.578-4.454C124.361,390.659,125.513,392.159,125.524,394.612Z" transform="translate(-110.181 -379.279)" fill="#fff"/>
            <path id="Tracé_292" data-name="Tracé 292" d="M135.346,393.57c-.011-2.477,1.2-4.2,3.646-4.461,2.474-.261,3.7,1.21,3.707,3.687l.037,8.385c.01,2.455-1.2,4.2-3.67,4.465-2.451.258-3.672-1.235-3.683-3.69Zm1.8,8.292c.007,1.483.629,2.274,1.911,2.139,1.305-.139,1.9-1.057,1.891-2.539l-.038-8.57c-.007-1.459-.606-2.277-1.911-2.139-1.282.135-1.9,1.08-1.891,2.539Z" transform="translate(-118.511 -378.394)" fill="#fff"/>
            <path id="Tracé_293" data-name="Tracé 293" d="M153.091,404.376l-.072-16.212,1.787-.188.064,14.569,4.581-.483.007,1.644Z" transform="translate(-127.153 -377.854)" fill="#fff"/>
            <path id="Tracé_294" data-name="Tracé 294" d="M173.863,392.665l.008,1.622-3.917.412.025,5.767,4.81-.506.007,1.644-6.6.7-.072-16.213,6.6-.695.008,1.644-4.81.506.024,5.536Z" transform="translate(-134.54 -376.591)" fill="#fff"/>
            <path id="Tracé_295" data-name="Tracé 295" d="M194.971,383.514c2.5-.264,3.648,1.145,3.66,3.645l.036,8.176c.011,2.477-1.127,4.127-3.624,4.39l-3.757.4-.072-16.212Zm.041,14.571c1.283-.135,1.9-1.011,1.891-2.493l-.037-8.338c-.007-1.482-.628-2.227-1.934-2.09l-1.924.2.057,12.924Z" transform="translate(-145.828 -375.657)" fill="#fff"/>
            <path id="Tracé_296" data-name="Tracé 296" d="M214.7,388.361l.008,1.622-3.917.412.025,5.767,4.811-.506.007,1.644-6.6.694-.072-16.212,6.6-.7.008,1.644-4.811.506.024,5.535Z" transform="translate(-154.509 -374.486)" fill="#fff"/>
            <path id="Tracé_297" data-name="Tracé 297" d="M238.013,394.557l-1.718.181-2.715-12.619.057,12.923-1.558.164-.072-16.212,2.5-.264L237.2,391.4l2.485-13.214,2.5-.264.072,16.212-1.7.179-.057-13.039Z" transform="translate(-165.775 -372.938)" fill="#fff"/>
            <path id="Tracé_298" data-name="Tracé 298" d="M257.186,389.04c.006,1.459.583,2.278,1.888,2.141,1.283-.136,1.852-1.076,1.845-2.535l-.055-12.391,1.672-.177.055,12.3c.01,2.455-1.1,4.217-3.578,4.478-2.45.258-3.58-1.268-3.591-3.722l-.054-12.3,1.763-.185Z" transform="translate(-177.196 -372.037)" fill="#fff"/>
            <path id="Tracé_299" data-name="Tracé 299" d="M279.615,378.353l0,.439-1.7.179,0-.532c-.007-1.46-.56-2.259-1.843-2.123s-1.829,1.049-1.822,2.485c.016,3.636,5.4,3.417,5.42,7.979.011,2.456-1.15,4.176-3.6,4.435s-3.6-1.219-3.614-3.674l0-.926,1.672-.176,0,1.019c.007,1.46.606,2.253,1.889,2.118s1.875-1.054,1.868-2.514c-.016-3.613-5.378-3.394-5.4-7.958-.011-2.5,1.128-4.174,3.532-4.427C278.453,374.421,279.6,375.9,279.615,378.353Z" transform="translate(-185.551 -371.338)" fill="#fff"/>
            <path id="Tracé_300" data-name="Tracé 300" d="M291.314,373.588l.072,16.213-1.787.189-.072-16.212Z" transform="translate(-193.898 -370.819)" fill="#fff"/>
            <path id="Tracé_301" data-name="Tracé 301" d="M303.729,375.826l.036,8.385a5.064,5.064,0,0,1-.607,2.588c.185.375.483.459.987.406l.229-.025.007,1.6-.3.031a1.908,1.908,0,0,1-2.043-.828,4.113,4.113,0,0,1-1.945.691c-2.451.259-3.672-1.234-3.683-3.689l-.037-8.385c-.011-2.477,1.2-4.2,3.646-4.462C302.5,371.878,303.717,373.349,303.729,375.826Zm-5.589.5.038,8.57c.007,1.482.628,2.274,1.911,2.138,1.305-.137,1.9-1.057,1.891-2.539l-.037-8.57c-.007-1.459-.607-2.276-1.911-2.138C298.748,373.919,298.133,374.863,298.14,376.322Z" transform="translate(-197.247 -370.096)" fill="#fff"/>
            <path id="Tracé_302" data-name="Tracé 302" d="M315.87,382.856c.006,1.458.583,2.279,1.888,2.141,1.283-.135,1.851-1.076,1.845-2.534l-.055-12.392,1.672-.176.054,12.3c.01,2.455-1.1,4.217-3.577,4.478-2.452.258-3.581-1.268-3.592-3.722l-.054-12.3,1.763-.186Z" transform="translate(-205.89 -369.013)" fill="#fff"/>
            <path id="Tracé_303" data-name="Tracé 303" d="M337.268,375.443l.007,1.622-3.916.414.025,5.767,4.81-.508.007,1.644-6.6.7-.072-16.213,6.6-.7.008,1.644-4.81.507.023,5.535Z" transform="translate(-214.436 -368.17)" fill="#fff"/>
          </g>
        </g>
        <path id="Tracé_304" data-name="Tracé 304" d="M314.43,402.521l102.856-10.84.131,29.709-102.856,10.84Z" transform="translate(-112.644 -19.807)" fill="#cb5c2f"/>
        <g id="Groupe_59" data-name="Groupe 59" transform="translate(212.318 380.794)">
          <g id="Groupe_58" data-name="Groupe 58" transform="translate(0 0)">
            <path id="Tracé_305" data-name="Tracé 305" d="M338.795,425.032c2.5-.264,3.647,1.145,3.659,3.645l.036,8.177c.011,2.477-1.128,4.127-3.624,4.39l-3.756.4-.072-16.213Zm.04,14.571c1.283-.135,1.9-1.011,1.891-2.493l-.036-8.338c-.007-1.483-.628-2.228-1.934-2.091l-1.923.2.056,12.924Z" transform="translate(-335.038 -416.893)" fill="#fff"/>
            <path id="Tracé_306" data-name="Tracé 306" d="M358.526,429.88l.007,1.622-3.916.412.025,5.767,4.81-.507.007,1.645-6.6.7-.072-16.213,6.6-.695.007,1.643-4.809.507.025,5.535Z" transform="translate(-343.718 -415.723)" fill="#fff"/>
            <path id="Tracé_307" data-name="Tracé 307" d="M372.434,421.512c2.52-.266,3.6,1.126,3.614,3.581l.008,1.945c.012,2.571-1.173,4.04-3.715,4.309l-1.581.166.029,6.392-1.786.189-.072-16.213Zm-.1,8.213c1.329-.14,1.968-.833,1.96-2.385l-.009-2.154c-.006-1.482-.537-2.169-1.842-2.03l-1.718.18.03,6.555Z" transform="translate(-351.609 -415.171)" fill="#fff"/>
            <path id="Tracé_308" data-name="Tracé 308" d="M387.244,432.009c.007,1.459.584,2.279,1.889,2.141,1.283-.134,1.851-1.076,1.844-2.534l-.054-12.391,1.672-.176.054,12.3c.011,2.455-1.1,4.217-3.578,4.477-2.45.259-3.58-1.267-3.59-3.721l-.054-12.3,1.764-.186Z" transform="translate(-359.676 -413.982)" fill="#fff"/>
            <path id="Tracé_309" data-name="Tracé 309" d="M404.7,418.315l.072,16.212-1.786.189L402.91,418.5Z" transform="translate(-368.224 -413.624)" fill="#fff"/>
            <path id="Tracé_310" data-name="Tracé 310" d="M416.757,420.575l0,.44-1.694.179,0-.532c-.007-1.46-.56-2.259-1.843-2.123s-1.829,1.049-1.822,2.485c.015,3.636,5.4,3.417,5.421,7.979.01,2.456-1.152,4.176-3.6,4.435s-3.6-1.218-3.614-3.674l0-.926,1.672-.176,0,1.018c.007,1.46.606,2.253,1.889,2.119s1.875-1.055,1.868-2.515c-.016-3.612-5.377-3.394-5.4-7.957-.012-2.5,1.127-4.174,3.533-4.427C415.594,416.643,416.747,418.121,416.757,420.575Z" transform="translate(-371.494 -412.918)" fill="#fff"/>
            <path id="Tracé_311" data-name="Tracé 311" d="M437.923,417.535a5.2,5.2,0,0,1-2.218.929l-.007-1.482a3.127,3.127,0,0,0,2.739-2.443l1.237-.131.072,16.212-1.765.187Z" transform="translate(-384.256 -411.714)" fill="#fff"/>
            <path id="Tracé_312" data-name="Tracé 312" d="M455.843,416.47l.036,8.269c.012,2.571-1.126,4.312-3.692,4.583-2.45.258-3.626-1.215-3.637-3.693v-.3l1.672-.177,0,.416c.007,1.46.63,2.251,1.912,2.116,1.373-.144,1.965-1.088,1.958-2.8l-.017-3.636a2.908,2.908,0,0,1-2.581,1.987c-2.061.217-2.983-1.168-2.994-3.508l-.01-2.478c-.011-2.477,1.173-4.2,3.646-4.462S455.833,413.992,455.843,416.47Zm-5.589.5.011,2.433c.007,1.459.629,2.273,1.912,2.139,1.305-.137,1.9-1.08,1.89-2.539l-.011-2.433c-.006-1.482-.6-2.276-1.91-2.138C450.863,414.562,450.248,415.484,450.254,416.966Z" transform="translate(-390.511 -410.905)" fill="#fff"/>
            <path id="Tracé_313" data-name="Tracé 313" d="M473.282,414.632l.036,8.269c.012,2.571-1.126,4.312-3.692,4.582-2.45.259-3.626-1.215-3.637-3.693v-.3l1.672-.176,0,.416c.006,1.46.629,2.251,1.911,2.116,1.375-.146,1.967-1.089,1.959-2.8l-.016-3.636a2.906,2.906,0,0,1-2.581,1.987c-2.061.218-2.984-1.168-2.994-3.508l-.01-2.478c-.012-2.477,1.173-4.2,3.646-4.462S473.272,412.155,473.282,414.632Zm-5.589.5.011,2.433c.007,1.459.629,2.275,1.912,2.139,1.305-.137,1.9-1.08,1.89-2.539l-.011-2.433c-.006-1.482-.606-2.275-1.91-2.138C468.3,412.725,467.687,413.646,467.693,415.128Z" transform="translate(-399.038 -410.006)" fill="#fff"/>
            <path id="Tracé_314" data-name="Tracé 314" d="M487.955,412.264a5.23,5.23,0,0,1-2.22.928l-.006-1.483a3.125,3.125,0,0,0,2.739-2.443l1.237-.13.072,16.213-1.764.187Z" transform="translate(-408.718 -409.136)" fill="#fff"/>
          </g>
        </g>
      </g>
      <g id="logo-2" data-name="logo" transform="translate(120.331 51.988)">
        <g id="Groupe_2" data-name="Groupe 2" transform="translate(105.091 17.838)">
          <rect id="Rectangle_2" data-name="Rectangle 2" width="4.687" height="43.186" fill="#fff"/>
        </g>
        <g id="Groupe_3" data-name="Groupe 3" transform="translate(101.096 0)">
          <circle id="Ellipse_1" data-name="Ellipse 1" cx="6.413" cy="6.413" r="6.413" transform="translate(0 0)" fill="#cb5c2f"/>
        </g>
        <path id="Tracé_25" data-name="Tracé 25" d="M222.4,166.387c-1.828-11.842-11.562-20.91-23.265-20.91-13,0-23.578,11.189-23.578,24.942s10.577,24.943,23.578,24.943a23.241,23.241,0,0,0,19.584-11.047l-.132-.083h-5.219A18.659,18.659,0,0,1,199.135,191c-10.595,0-19.214-9.231-19.214-20.578s8.619-20.578,19.214-20.578c9.306,0,17.086,7.123,18.841,16.545H187.037v6.226h35.388v-.075l.042-5.692C222.447,166.692,222.424,166.54,222.4,166.387Z" transform="translate(-175.557 -122.003)" fill="#fff"/>
        <path id="Tracé_26" data-name="Tracé 26" d="M458.382,127.517v43.655a22,22,0,0,1-8.894,18.054,23.59,23.59,0,0,1-14.854,5.52,23.939,23.939,0,0,1-23.914-22.909c-.014.343-.026.686-.026,1.032a26,26,0,0,0,51.264,6.181,28.4,28.4,0,0,0,1.111-7.879V127.517Z" transform="translate(-338.522 -109.556)" fill="#fff"/>
        <path id="Tracé_27" data-name="Tracé 27" d="M369.727,141.353h0v-49.7h0V83.478s-5.121,2.335-12.643,8.643a97.752,97.752,0,0,0-12.432,12.686c-1.751-.914-13.686-6.764-13.686-6.764v7.849l.019.01v34.36h-4.393l.017.015a8.776,8.776,0,1,0,9.072,8.766c0-.074-.009-.145-.011-.219h0v-40.48l9.484,4.941a135.075,135.075,0,0,1,13.6-14.206,63.433,63.433,0,0,1,6.282-4.766v38.478h-4.393l.018.015a8.776,8.776,0,1,0,9.072,8.766C369.738,141.5,369.729,141.427,369.727,141.353Z" transform="translate(-274.363 -79.034)" fill="#fff"/>
      </g>
    </g>
  </svg>