<?xml version="1.0" encoding="utf-8"?>
<svg xmlns="http://www.w3.org/2000/svg" xmlns:xlink="http://www.w3.org/1999/xlink" width="56.565" height="70.608" viewBox="0 0 56.565 70.608">
  <defs>
    <clipPath id="clip-path">
      <rect id="Rectangle_26" data-name="Rectangle 26" width="40.806" height="13.309" fill="none"/>
    </clipPath>
  </defs>
  <g id="Groupe_37" data-name="Groupe 37" transform="translate(0.103 0.098)">
    <rect id="Rectangle_23" data-name="Rectangle 23" width="56.352" height="36.511" transform="translate(0.005)" fill="#fff"/>
    <rect id="Rectangle_24" data-name="Rectangle 24" width="56.359" height="36.502" transform="translate(0 0.005)" fill="none" stroke="#fff" stroke-width="0.206"/>
    <g id="Groupe_29" data-name="Groupe 29" transform="translate(7.466 21.249)">
      <path id="Tracé_95" data-name="Tracé 95" d="M124.814,22.92a1.154,1.154,0,0,0-.243.03c0,.234,0,.657,0,.985a1.429,1.429,0,0,0,.177.011.5.5,0,0,0,.558-.51.486.486,0,0,0-.487-.517m1.043,2.473a.521.521,0,0,1-.321-.078,1.613,1.613,0,0,1-.356-.457c-.14-.234-.294-.482-.439-.694a.315.315,0,0,1-.062,0c-.039,0-.073,0-.113,0v.211c0,.106,0,.214,0,.319a1.131,1.131,0,0,0,.039.388.257.257,0,0,0,.25.165v.11l-.1,0c-.1,0-.253,0-.441,0s-.335,0-.441,0l-.1,0v-.11a.269.269,0,0,0,.2-.08.354.354,0,0,0,.08-.211,4.624,4.624,0,0,0,.016-.581v-.664a2.891,2.891,0,0,0-.044-.712c-.03-.106-.115-.149-.253-.165v-.11a2.154,2.154,0,0,0,.243,0c.211,0,.276,0,.528-.014.218-.007.347-.009.443-.009a.954.954,0,0,1,.581.133.644.644,0,0,1,.255.519.787.787,0,0,1-.59.721,6.808,6.808,0,0,1,.416.595,3.167,3.167,0,0,0,.363.475.308.308,0,0,0,.17.1v.11a1.412,1.412,0,0,1-.338.034" transform="translate(-123.498 -16.963)" fill="#651f59"/>
      <path id="Tracé_96" data-name="Tracé 96" d="M126.475,25.481c-.032.048-.064.06-.25.06-.115,0-.223-.007-.338-.011-.161,0-.324-.007-.485-.007s-.322,0-.485.007v-.092a.232.232,0,0,0,.234-.239c.009-.1.009-.2.009-.372V23.9a.818.818,0,0,0-.037-.317c-.03-.087-.092-.124-.207-.138v-.094h1.573c0,.1,0,.2,0,.287s0,.156,0,.234h-.122c-.025-.253-.133-.319-.533-.319-.076,0-.172,0-.253.007-.007.126-.011.168-.011.356V24.3c.053,0,.092,0,.154,0,.347,0,.455-.051.475-.225h.119c-.007.053-.007.158-.007.321s0,.266.007.317H126.2c-.009-.186-.1-.232-.448-.232l-.181,0c0,.209,0,.413,0,.618,0,.138.025.181.106.2a.988.988,0,0,0,.23.016c.365,0,.491-.076.57-.344l.129.025a2.01,2.01,0,0,1-.135.48m-.749-2.34-.158-.09.333-.478.386.069Z" transform="translate(-122.029 -17.134)" fill="#651f59"/>
      <path id="Tracé_97" data-name="Tracé 97" d="M126.717,24.131a.712.712,0,0,1-.094,0l-.073-.168c.315-.018.491-.168.491-.416a.429.429,0,0,0-.443-.448.675.675,0,0,0-.126.011c0,.2,0,.406,0,.609v.569a1.675,1.675,0,0,0,.037.586c.028.087.09.126.2.135V25.1l-.08,0c-.09,0-.209,0-.37,0s-.282,0-.365,0l-.083,0v-.092a.229.229,0,0,0,.232-.241,3.972,3.972,0,0,0,.011-.48v-.813a.833.833,0,0,0-.039-.321c-.03-.085-.09-.122-.2-.135v-.092c.041,0,.011,0,.156,0,.055,0,.138,0,.246,0,.17-.007.34-.016.512-.016.475,0,.762.227.762.606,0,.356-.326.618-.769.618" transform="translate(-120.873 -16.702)" fill="#651f59"/>
      <path id="Tracé_98" data-name="Tracé 98" d="M128.684,23.075a.431.431,0,0,0-.062.246c-.007.142-.009.248-.009.45,0,.076,0,.3,0,.526a.775.775,0,0,1-.135.5.86.86,0,0,1-.744.331.9.9,0,0,1-.524-.14.7.7,0,0,1-.326-.684c0-.351.007-.5.007-.62a2.794,2.794,0,0,0-.018-.5c-.023-.119-.085-.165-.227-.179v-.092l.078,0c.087,0,.211,0,.372,0s.285,0,.374,0l.076,0v.092c-.1.014-.154.037-.186.092a.527.527,0,0,0-.048.259c0,.2-.009.409-.009.613,0,.56.014.668.115.785a.553.553,0,0,0,.891-.175,1.854,1.854,0,0,0,.053-.611v-.324c0-.37-.011-.487-.048-.542a.213.213,0,0,0-.175-.1v-.092c.133.007.179.007.347.007s.22,0,.354-.007v.092a.226.226,0,0,0-.156.069" transform="translate(-119.788 -16.693)" fill="#651f59"/>
      <path id="Tracé_99" data-name="Tracé 99" d="M128.6,24c-.055,0-.117,0-.2.009,0,.087,0,.106,0,.255v.193a1.169,1.169,0,0,0,.03.347c.025.08.106.119.248.119a.4.4,0,0,0,.446-.427.471.471,0,0,0-.517-.5m-.009-.912c-.062,0-.122.007-.181.007,0,.214-.009.579-.014.714a1.248,1.248,0,0,0,.149.007c.326,0,.514-.133.514-.367s-.174-.361-.468-.361m.73,1.853a1.013,1.013,0,0,1-.675.158c-.184,0-.367-.011-.549-.011-.073,0-.209,0-.305,0l-.041,0V25c.158-.011.218-.092.232-.239a3.807,3.807,0,0,0,.014-.48v-.618a1.622,1.622,0,0,0-.037-.517.211.211,0,0,0-.209-.138v-.092c.154.007.246.007.459.007.2,0,.489-.011.682-.011.31,0,.592.145.592.485,0,.25-.163.418-.482.5a.578.578,0,0,1,.547.592.521.521,0,0,1-.227.45" transform="translate(-118.36 -16.696)" fill="#651f59"/>
      <path id="Tracé_100" data-name="Tracé 100" d="M130.208,25.045c-.03.044-.069.055-.239.055-.085,0-.17,0-.255-.007-.209-.007-.395-.014-.625-.014-.17,0-.287,0-.39.009V25a.215.215,0,0,0,.163-.064c.062-.069.078-.152.078-.39,0-.165,0-.294,0-.464v-.349a1.667,1.667,0,0,0-.037-.588A.219.219,0,0,0,128.7,23v-.09l.083,0c.09,0,.214,0,.381,0s.294,0,.381,0l.083,0V23a.242.242,0,0,0-.266.246,4.479,4.479,0,0,0-.009.48v.544c0,.452,0,.51.048.556s.106.053.25.053a.733.733,0,0,0,.37-.067.418.418,0,0,0,.2-.285l.126.034a2.228,2.228,0,0,1-.138.48" transform="translate(-117.128 -16.693)" fill="#651f59"/>
      <path id="Tracé_101" data-name="Tracé 101" d="M130.324,25.086c-.083,0-.209,0-.363,0s-.282,0-.372,0l-.08,0V25c.158-.011.22-.09.232-.241.007-.1.014-.156.014-.48v-.547c0-.085-.007-.172-.007-.266a.955.955,0,0,0-.03-.321c-.03-.085-.094-.122-.209-.135v-.092l.08,0c.09,0,.207,0,.372,0s.28,0,.363,0l.083,0v.092a.239.239,0,0,0-.234.243c-.009.094-.009.186-.009.48v.547a1.746,1.746,0,0,0,.037.586.2.2,0,0,0,.207.135v.092Z" transform="translate(-116.078 -16.693)" fill="#651f59"/>
      <path id="Tracé_102" data-name="Tracé 102" d="M131.179,23.117a.728.728,0,0,0-.7.8.917.917,0,0,0,.785,1.017.737.737,0,0,0,.707-.813.906.906,0,0,0-.79-1m1.584,2.581a1.733,1.733,0,0,1-.806-.22,3.57,3.57,0,0,1-.514-.349,1.378,1.378,0,0,1-.266.023,1.042,1.042,0,0,1-1.128-1.082,1.127,1.127,0,0,1,1.2-1.173,1.053,1.053,0,0,1,1.153,1.075,1.157,1.157,0,0,1-.625,1.056c.122.06.243.126.358.2a1.593,1.593,0,0,0,.8.287.821.821,0,0,0,.386-.1l.046.117a1.067,1.067,0,0,1-.6.168" transform="translate(-115.377 -16.715)" fill="#651f59"/>
      <path id="Tracé_103" data-name="Tracé 103" d="M133.235,23.075a.416.416,0,0,0-.06.246c-.007.142-.011.248-.011.45,0,.076,0,.3,0,.526a.788.788,0,0,1-.135.5.864.864,0,0,1-.746.331.9.9,0,0,1-.521-.14.694.694,0,0,1-.328-.684c0-.351.007-.5.007-.62a3.021,3.021,0,0,0-.018-.5c-.021-.119-.083-.165-.227-.179v-.092l.08,0c.087,0,.211,0,.372,0s.285,0,.372,0l.078,0v.092c-.106.014-.156.037-.188.092a.508.508,0,0,0-.046.259c-.007.2-.009.409-.009.613,0,.56.011.668.115.785a.553.553,0,0,0,.891-.175,1.946,1.946,0,0,0,.051-.611v-.324c0-.37-.011-.487-.048-.542a.213.213,0,0,0-.174-.1v-.092c.133.007.181.007.347.007s.22,0,.354-.007v.092a.226.226,0,0,0-.156.069" transform="translate(-113.888 -16.693)" fill="#651f59"/>
      <path id="Tracé_104" data-name="Tracé 104" d="M133.852,25.04c-.03.048-.064.06-.248.06-.115,0-.225-.007-.338-.011-.161,0-.324-.009-.485-.009s-.322,0-.482.009V25a.231.231,0,0,0,.23-.241,3.283,3.283,0,0,0,.012-.372v-.921a.873.873,0,0,0-.037-.319.214.214,0,0,0-.2-.14v-.09h1.571c0,.092,0,.193,0,.287a1.974,1.974,0,0,0,0,.232h-.124c-.021-.253-.131-.321-.533-.321-.073,0-.17,0-.253.007-.007.126-.009.17-.009.361v.377c.051,0,.092,0,.154,0,.349,0,.455-.051.475-.225h.122c-.007.051-.007.158-.007.321s0,.264.007.317h-.122c-.009-.188-.1-.232-.448-.232-.06,0-.119,0-.181,0,0,.2,0,.409,0,.615,0,.138.025.184.106.2a1.01,1.01,0,0,0,.232.016c.365,0,.491-.078.57-.344l.131.025a2.186,2.186,0,0,1-.14.48" transform="translate(-112.459 -16.693)" fill="#651f59"/>
      <path id="Tracé_105" data-name="Tracé 105" d="M135.3,23.35c0-.285-.172-.393-.634-.393-.092,0-.181,0-.282.009-.007.273-.007.464-.007.893.1,0,.145.007.214.007.377,0,.491-.064.512-.278h.145c0,.113-.007.227-.007.338,0,.145.007.3.007.443H135.1c-.028-.239-.122-.285-.549-.285-.073,0-.1,0-.177,0v.443c0,.087,0,.181,0,.285.009.218.021.406.287.423v.11l-.1,0c-.1,0-.25,0-.443,0s-.34,0-.445,0l-.1,0v-.11a.282.282,0,0,0,.28-.292c.012-.117.012-.191.012-.581v-.987a1.132,1.132,0,0,0-.041-.388.261.261,0,0,0-.25-.165v-.11h1.872c-.009.076-.009.2-.009.367a2,2,0,0,0,.009.269Z" transform="translate(-110.8 -16.952)" fill="#651f59"/>
      <path id="Tracé_106" data-name="Tracé 106" d="M135.409,23.084a.806.806,0,0,0-.2.025c0,.191,0,.542,0,.811a1,1,0,0,0,.145.011.419.419,0,0,0,.462-.423.4.4,0,0,0-.4-.425m.863,2.041a.454.454,0,0,1-.266-.062,1.364,1.364,0,0,1-.294-.379c-.113-.191-.241-.4-.365-.572a.164.164,0,0,1-.046,0c-.034,0-.06,0-.094,0v.175c0,.085,0,.177,0,.264a.865.865,0,0,0,.034.317.206.206,0,0,0,.2.138V25.1l-.076,0c-.085,0-.209,0-.365,0s-.276,0-.365,0l-.078,0v-.092a.211.211,0,0,0,.163-.064.294.294,0,0,0,.069-.175,4.676,4.676,0,0,0,.012-.48v-.549a2.381,2.381,0,0,0-.034-.586c-.023-.09-.1-.126-.209-.138v-.092a1.961,1.961,0,0,0,.2,0c.175,0,.227,0,.436-.009.179,0,.285-.009.365-.009a.81.81,0,0,1,.482.11.539.539,0,0,1,.209.429.647.647,0,0,1-.491.595,5.719,5.719,0,0,1,.349.494,2.266,2.266,0,0,0,.3.39.247.247,0,0,0,.142.08V25.1a1.2,1.2,0,0,1-.28.028" transform="translate(-109.527 -16.702)" fill="#651f59"/>
      <path id="Tracé_107" data-name="Tracé 107" d="M136.449,23.488c-.085.223-.207.51-.257.666h.5Zm1.089,1.6c-.085,0-.2,0-.358,0s-.278,0-.363,0l-.078,0V25c.108-.007.174-.06.174-.154a.6.6,0,0,0-.046-.172l-.106-.315h-.645l-.067.191a1.076,1.076,0,0,0-.078.308c0,.1.041.135.149.142v.092c-.126,0-.175-.007-.335-.007s-.2,0-.331.007V25a.152.152,0,0,0,.1-.044,1.228,1.228,0,0,0,.227-.418l.319-.79c.087-.211.218-.556.308-.831h.232c.028.1.1.259.147.379l.471,1.176a3.27,3.27,0,0,0,.184.393.241.241,0,0,0,.174.135v.092Z" transform="translate(-108.369 -16.693)" fill="#651f59"/>
      <path id="Tracé_108" data-name="Tracé 108" d="M138.593,23.1a.536.536,0,0,0-.051.285c-.011.294-.016.749-.016.969v.5c0,.073.009.191.009.234h-.225c-.218-.276-.671-.815-.671-.815-.053-.064-.473-.565-.684-.818,0,.067-.007.025-.007.237V23.9c0,.246.007.487.018.73a.52.52,0,0,0,.053.269A.174.174,0,0,0,137.2,25v.092c-.115,0-.239,0-.356,0s-.237,0-.358,0V25c.223,0,.227-.184.234-.356,0-.135.007-.25.007-.457v-.691c0-.269-.014-.333-.064-.406a.2.2,0,0,0-.177-.08v-.092c.108.007.152.007.292.007s.179,0,.289-.007a4.014,4.014,0,0,0,.335.409c.328.39.625.716.9,1.056v-.707a2.483,2.483,0,0,0-.025-.494.2.2,0,0,0-.209-.172v-.092c.135.007.184.007.358.007s.218,0,.351-.007v.092a.186.186,0,0,0-.186.1" transform="translate(-107.034 -16.693)" fill="#651f59"/>
      <path id="Tracé_109" data-name="Tracé 109" d="M139.469,25.033a1.713,1.713,0,0,1-.673.117l-.032.131a.557.557,0,0,1,.062,0,.2.2,0,0,1,.214.2c0,.179-.145.3-.372.3a.5.5,0,0,1-.2-.044l.048-.126a.291.291,0,0,0,.119.028c.094,0,.156-.048.156-.129s-.032-.1-.083-.1a.182.182,0,0,0-.073.023l-.074-.016.067-.262a1.051,1.051,0,0,1-.689-.305,1.111,1.111,0,0,1-.321-.818,1.091,1.091,0,0,1,1.235-1.128,2.26,2.26,0,0,1,.652.092c0,.076,0,.152,0,.225,0,.053,0,.172,0,.248h-.133c-.051-.232-.246-.358-.551-.358a.728.728,0,0,0-.758.818c0,.588.338,1.013.8,1.013a.522.522,0,0,0,.549-.395l.129.025a2.919,2.919,0,0,0-.073.468" transform="translate(-105.568 -16.715)" fill="#651f59"/>
      <path id="Tracé_110" data-name="Tracé 110" d="M139.527,23.488c-.09.223-.207.51-.26.666h.5Zm1.086,1.6c-.085,0-.2,0-.358,0s-.28,0-.363,0l-.078,0V25c.11-.007.172-.06.172-.154a.6.6,0,0,0-.046-.172c-.039-.124-.064-.2-.106-.315h-.645l-.069.191a1.3,1.3,0,0,0-.073.308c0,.1.044.135.149.142v.092c-.126,0-.175-.007-.335-.007s-.2,0-.331.007V25a.156.156,0,0,0,.1-.044,1.187,1.187,0,0,0,.227-.418l.319-.79c.087-.211.218-.556.308-.831h.23c.032.1.1.259.149.379l.471,1.176a3.273,3.273,0,0,0,.184.393A.241.241,0,0,0,140.7,25v.092Z" transform="translate(-104.383 -16.693)" fill="#651f59"/>
      <path id="Tracé_111" data-name="Tracé 111" d="M140.379,25.086c-.087,0-.211,0-.367,0s-.282,0-.37,0l-.083,0V25c.161-.011.22-.09.234-.241a4.288,4.288,0,0,0,.014-.48v-.547c0-.085,0-.172,0-.266a.938.938,0,0,0-.032-.321c-.032-.085-.1-.122-.211-.135v-.092l.083,0c.087,0,.207,0,.37,0s.28,0,.367,0l.078,0v.092a.235.235,0,0,0-.232.243,4.251,4.251,0,0,0-.012.48v.547a1.638,1.638,0,0,0,.039.586c.03.087.09.126.2.135v.092Z" transform="translate(-103.049 -16.693)" fill="#651f59"/>
      <path id="Tracé_112" data-name="Tracé 112" d="M140.722,25.152a1.441,1.441,0,0,1-.563-.113c-.009-.124-.034-.312-.062-.468l.129-.021a.506.506,0,0,0,.517.4c.237,0,.4-.119.4-.3,0-.149-.108-.25-.257-.34l-.354-.218a.651.651,0,0,1-.381-.592c0-.367.285-.6.73-.6a1.246,1.246,0,0,1,.549.115c0,.078,0,.106,0,.209s0,.147,0,.239H141.3a.412.412,0,0,0-.429-.365.323.323,0,0,0-.358.308c0,.156.113.262.287.372l.285.179c.273.172.427.34.427.6,0,.358-.319.6-.792.6" transform="translate(-102.352 -16.715)" fill="#651f59"/>
      <path id="Tracé_113" data-name="Tracé 113" d="M142.423,25.04c-.032.048-.064.06-.25.06-.113,0-.225-.007-.338-.011-.161,0-.321-.009-.485-.009s-.324,0-.482.009V25a.233.233,0,0,0,.232-.241,3.283,3.283,0,0,0,.012-.372v-.921a.811.811,0,0,0-.039-.319.21.21,0,0,0-.2-.14v-.09h1.571c0,.092,0,.193,0,.287,0,.076,0,.152,0,.232h-.122c-.021-.253-.133-.321-.535-.321-.071,0-.17,0-.25.007-.007.126-.012.17-.012.361v.377c.053,0,.092,0,.154,0,.349,0,.457-.051.475-.225h.124a2.594,2.594,0,0,0-.009.321c0,.165,0,.264.009.317h-.124c-.009-.188-.1-.232-.446-.232-.06,0-.122,0-.184,0,0,.2,0,.409,0,.615,0,.138.023.184.1.2a1.01,1.01,0,0,0,.232.016c.365,0,.491-.078.569-.344l.131.025a2.093,2.093,0,0,1-.138.48" transform="translate(-101.352 -16.693)" fill="#651f59"/>
      <path id="Tracé_114" data-name="Tracé 114" d="M125.1,22.6c-.03.039-.078.053-.2.053-.158,0-.315-.011-.475-.014-.135,0-.243-.007-.315-.007-.1,0-.335,0-.4.007l-.046,0,.011-.064a.257.257,0,0,0,.2-.1.82.82,0,0,0,.131-.328c.041-.175.062-.28.129-.609l.053-.25a2.8,2.8,0,0,0,.073-.482c0-.138-.053-.2-.193-.211l.011-.071a.181.181,0,0,0,.046,0l.361,0c.188,0,.315,0,.37,0a.236.236,0,0,0,.051,0l-.011.071a.251.251,0,0,0-.207.094c-.08.1-.126.239-.248.85l-.044.216c-.053.259-.069.347-.087.466a.645.645,0,0,0-.009.1c0,.122.064.161.273.161.37,0,.508-.073.627-.333l.09.032a2.107,2.107,0,0,1-.193.42" transform="translate(-123.66 -19.79)" fill="#651f59"/>
      <path id="Tracé_115" data-name="Tracé 115" d="M124.616,22.574c-.067,0-.11-.037-.11-.094a.734.734,0,0,1,.028-.147c.041-.168.1-.4.133-.519a1.536,1.536,0,0,0,.064-.324c0-.041-.018-.06-.053-.06a.454.454,0,0,0-.129.028l-.023.007-.011-.09a1.575,1.575,0,0,1,.448-.106c.046,0,.067.016.067.053a2.049,2.049,0,0,1-.076.361l-.048.188a2.378,2.378,0,0,0-.1.468.069.069,0,0,0,.076.076.619.619,0,0,0,.179-.044l.007.09a1.643,1.643,0,0,1-.45.113m.356-1.624a.151.151,0,0,1-.168-.152.189.189,0,0,1,.2-.193.143.143,0,0,1,.161.147.19.19,0,0,1-.2.2" transform="translate(-122.563 -19.685)" fill="#651f59"/>
      <path id="Tracé_116" data-name="Tracé 116" d="M125.853,21.529a.5.5,0,0,0-.223.071.562.562,0,0,0-.2.147,1.006,1.006,0,0,0-.131.365,2.362,2.362,0,0,0-.071.365c0,.062.071.1.2.1a.4.4,0,0,0,.331-.179,1.284,1.284,0,0,0,.232-.675c0-.122-.051-.191-.145-.191m0,1.022a.736.736,0,0,1-.51.152c-.255,0-.409-.041-.409-.1a.789.789,0,0,1,.037-.193l.17-.721c.053-.23.1-.416.156-.677a1.7,1.7,0,0,0,.046-.276c0-.039-.018-.057-.055-.057a.834.834,0,0,0-.142.03l0-.092.039-.014a1.738,1.738,0,0,1,.393-.09c.041,0,.069.021.069.055a2.287,2.287,0,0,1-.074.351l-.1.418c-.03.138-.039.188-.051.23a1.137,1.137,0,0,1,.549-.17.264.264,0,0,1,.3.3,1.226,1.226,0,0,1-.413.859" transform="translate(-122.005 -19.811)" fill="#651f59"/>
      <path id="Tracé_117" data-name="Tracé 117" d="M126.377,21.021c-.158,0-.324.207-.406.517H126c.3,0,.533-.154.533-.358a.157.157,0,0,0-.158-.158m-.338.634c-.023,0-.055,0-.1,0a1.233,1.233,0,0,0-.009.152c0,.163.055.248.17.248a.875.875,0,0,0,.427-.172l.037.11a1.174,1.174,0,0,1-.59.211.291.291,0,0,1-.315-.331.918.918,0,0,1,.79-.976c.2,0,.324.09.324.25,0,.292-.317.51-.737.51" transform="translate(-121.063 -19.311)" fill="#651f59"/>
      <path id="Tracé_118" data-name="Tracé 118" d="M127.266,21.306l-.108-.009a.739.739,0,0,0,.009-.126c0-.057-.051-.1-.133-.1a.2.2,0,0,0-.14.073,1.529,1.529,0,0,0-.246.707l-.062.31c-.124.007-.156.009-.282.023.03-.119.053-.216.08-.324l.071-.294a1.946,1.946,0,0,0,.074-.393c0-.078-.021-.113-.06-.113a.365.365,0,0,0-.083.016l-.08.023-.009-.094a1.591,1.591,0,0,1,.423-.115c.034,0,.055.014.06.046a.546.546,0,0,1,.021.138.684.684,0,0,1,.367-.186.417.417,0,0,1,.218.085,1.978,1.978,0,0,0-.119.328" transform="translate(-120.241 -19.313)" fill="#651f59"/>
      <path id="Tracé_119" data-name="Tracé 119" d="M127.622,21.278l-.271-.007-.14.65a1.292,1.292,0,0,0-.037.243c0,.044.021.069.064.069a.73.73,0,0,0,.152-.034l.032-.011.007.094a1.493,1.493,0,0,1-.439.11c-.069,0-.113-.032-.113-.092a1.045,1.045,0,0,1,.039-.232c.032-.11.053-.2.08-.326l.1-.471-.175,0,.025-.1c.22-.037.3-.209.358-.393l.156-.032-.08.374.273,0Z" transform="translate(-119.488 -19.501)" fill="#651f59"/>
      <path id="Tracé_120" data-name="Tracé 120" d="M128.03,21.427c-.158,0-.326.209-.406.517h.032c.305,0,.533-.154.533-.356a.158.158,0,0,0-.158-.161m-.34.634c-.023,0-.051,0-.094,0a1.244,1.244,0,0,0-.011.152c0,.163.057.248.172.248a.875.875,0,0,0,.427-.172l.037.11a1.173,1.173,0,0,1-.592.211.287.287,0,0,1-.31-.328.917.917,0,0,1,.788-.978c.2,0,.324.09.324.25,0,.292-.319.51-.739.51m.365-.96-.106-.08.4-.439.3.071Z" transform="translate(-118.918 -19.716)" fill="#651f59"/>
      <path id="Tracé_121" data-name="Tracé 121" d="M131.382,21.4h-.094l0-.071c0-.175-.119-.234-.443-.234-.108,0-.214,0-.319.009-.071.264-.117.491-.172.774h.122a2.237,2.237,0,0,0,.374-.016.265.265,0,0,0,.227-.216h.087c-.044.186-.1.455-.122.615h-.09l.007-.055c0-.135-.09-.179-.358-.179-.158,0-.218,0-.278,0-.016.08,0,.011-.073.374a2.3,2.3,0,0,0-.051.347c0,.113.06.14.28.14.409,0,.54-.062.664-.335l.085.032a1.946,1.946,0,0,1-.2.429c-.032.034-.076.046-.211.046-.117,0-.237,0-.347-.007-.152,0-.305-.007-.455-.007l-.459,0,.014-.064a.26.26,0,0,0,.2-.1.851.851,0,0,0,.131-.331c.044-.177.057-.25.131-.606l.053-.253a2.656,2.656,0,0,0,.071-.482c0-.14-.053-.2-.193-.211l.014-.071h1.486c-.037.142-.067.317-.09.464m-.622-.675-.1-.085.4-.439.3.071Z" transform="translate(-116.007 -20.205)" fill="#651f59"/>
      <path id="Tracé_122" data-name="Tracé 122" d="M131.367,22.3c-.113-.041-.246-.085-.383-.124a.452.452,0,0,0-.384.4c0,.17.152.285.386.285.285,0,.547-.188.547-.39,0-.078-.048-.126-.165-.172m-.051-1.286a.365.365,0,0,0-.319.4.223.223,0,0,0,.214.25.356.356,0,0,0,.315-.39c0-.158-.083-.257-.209-.257m.625.069-.223,0a.338.338,0,0,1,.053.191.545.545,0,0,1-.581.519.579.579,0,0,1-.172-.025c-.083.048-.11.067-.11.094s.037.053.181.1l.259.08c.264.076.39.154.39.338,0,.338-.342.6-.783.6-.361,0-.579-.163-.579-.434,0-.248.165-.365.434-.434-.165-.053-.2-.078-.2-.133,0-.071.1-.156.292-.259a.331.331,0,0,1-.149-.289.542.542,0,0,1,.574-.53.6.6,0,0,1,.218.032h.432Z" transform="translate(-114.952 -19.311)" fill="#651f59"/>
      <path id="Tracé_123" data-name="Tracé 123" d="M132.012,21.029a.469.469,0,0,0-.372.273,1.321,1.321,0,0,0-.214.618c0,.1.051.154.131.154a.8.8,0,0,0,.418-.186.5.5,0,0,0,.1-.227,4.956,4.956,0,0,0,.131-.586.55.55,0,0,0-.2-.046m.152,1.173c-.06,0-.08-.034-.108-.191a1.211,1.211,0,0,1-.59.2c-.2,0-.312-.1-.312-.273a1.239,1.239,0,0,1,.216-.606.831.831,0,0,1,.728-.434,1.62,1.62,0,0,1,.423.062l-.016.053a4.163,4.163,0,0,0-.2.9c0,.087.021.135.06.135a.767.767,0,0,0,.177-.048l.011.1a1.858,1.858,0,0,1-.383.108" transform="translate(-113.946 -19.312)" fill="#651f59"/>
      <path id="Tracé_124" data-name="Tracé 124" d="M132.6,20.835c-.108.42-.216.893-.322,1.339a2,2,0,0,0-.046.289c0,.048.021.071.069.071a.857.857,0,0,0,.181-.039l.007.092a1.884,1.884,0,0,1-.459.115.088.088,0,0,1-.1-.094,1.434,1.434,0,0,1,.057-.3c.1-.42.214-.868.3-1.27a2.975,2.975,0,0,0,.055-.305c0-.039-.018-.055-.055-.055a.607.607,0,0,0-.142.03l0-.094a1.729,1.729,0,0,1,.439-.1c.046,0,.071.021.071.055a1.42,1.42,0,0,1-.057.271" transform="translate(-112.935 -19.811)" fill="#651f59"/>
      <path id="Tracé_125" data-name="Tracé 125" d="M132.482,22.574c-.067,0-.108-.037-.108-.094a1.21,1.21,0,0,1,.025-.147c.041-.168.1-.4.135-.519a1.6,1.6,0,0,0,.067-.324.052.052,0,0,0-.06-.06.459.459,0,0,0-.126.028l-.021.007-.009-.09a1.524,1.524,0,0,1,.441-.106c.051,0,.071.016.071.053a1.829,1.829,0,0,1-.076.361l-.051.188a2.378,2.378,0,0,0-.1.468.069.069,0,0,0,.076.076.645.645,0,0,0,.181-.044l.007.09a1.694,1.694,0,0,1-.452.113m.356-1.624a.151.151,0,0,1-.168-.152.19.19,0,0,1,.2-.193.142.142,0,0,1,.158.147.19.19,0,0,1-.2.2" transform="translate(-112.363 -19.685)" fill="#651f59"/>
      <path id="Tracé_126" data-name="Tracé 126" d="M133.553,21.278l-.273-.007-.133.65a1.2,1.2,0,0,0-.039.243.061.061,0,0,0,.064.069.754.754,0,0,0,.149-.034l.034-.011.009.094a1.551,1.551,0,0,1-.443.11c-.067,0-.108-.032-.108-.092a1.16,1.16,0,0,1,.037-.232c.032-.11.053-.2.078-.326l.1-.471-.175,0,.025-.1c.22-.037.294-.209.356-.393l.158-.032-.08.374.269,0Z" transform="translate(-111.793 -19.501)" fill="#651f59"/>
      <path id="Tracé_127" data-name="Tracé 127" d="M133.964,21.427c-.156,0-.326.209-.4.517h.032c.3,0,.533-.154.533-.356a.16.16,0,0,0-.161-.161m-.338.634c-.023,0-.05,0-.094,0a.719.719,0,0,0-.011.152c0,.163.06.248.17.248a.881.881,0,0,0,.429-.172l.037.11a1.188,1.188,0,0,1-.59.211.289.289,0,0,1-.315-.328.92.92,0,0,1,.788-.978c.2,0,.326.09.326.25,0,.292-.319.51-.739.51m.363-.96-.1-.08.4-.439.294.071Z" transform="translate(-111.225 -19.716)" fill="#651f59"/>
      <path id="Tracé_128" data-name="Tracé 128" d="M137.276,20.987h-.1c0-.032.009-.06.009-.073a.194.194,0,0,0-.064-.152c-.062-.057-.174-.08-.423-.08-.071,0-.161,0-.241,0-.06.262-.113.512-.172.783.064,0,.126,0,.188,0,.361,0,.432-.034.5-.239h.09a5.585,5.585,0,0,0-.122.62h-.1l.009-.055a.169.169,0,0,0-.062-.135c-.053-.041-.122-.051-.317-.051-.1,0-.135,0-.22,0l-.041.216a3.213,3.213,0,0,0-.085.537c0,.129.06.188.2.207l-.016.064-.053,0-.294,0c-.131,0-.372,0-.413,0l-.057,0,.014-.064a.259.259,0,0,0,.2-.1.788.788,0,0,0,.131-.328c.046-.181.064-.276.129-.606l.055-.25a2.7,2.7,0,0,0,.071-.485c0-.14-.051-.2-.191-.214l.014-.069h1.447c-.032.142-.062.308-.09.462" transform="translate(-108.319 -19.79)" fill="#651f59"/>
      <path id="Tracé_129" data-name="Tracé 129" d="M137.3,21.306,137.2,21.3a1.078,1.078,0,0,0,.009-.126c0-.057-.051-.1-.133-.1a.206.206,0,0,0-.142.073,1.559,1.559,0,0,0-.243.707l-.064.31c-.124.007-.154.009-.282.023.032-.119.057-.216.08-.324l.073-.294a1.882,1.882,0,0,0,.071-.393c0-.078-.021-.113-.057-.113a.364.364,0,0,0-.083.016l-.083.023-.009-.094a1.6,1.6,0,0,1,.425-.115.056.056,0,0,1,.062.046.713.713,0,0,1,.016.138.69.69,0,0,1,.37-.186.411.411,0,0,1,.216.085,1.957,1.957,0,0,0-.117.328" transform="translate(-107.232 -19.313)" fill="#651f59"/>
      <path id="Tracé_130" data-name="Tracé 130" d="M137.733,21.029a.47.47,0,0,0-.367.273,1.3,1.3,0,0,0-.216.618c0,.1.051.154.131.154a.767.767,0,0,0,.416-.186.434.434,0,0,0,.106-.227,4.543,4.543,0,0,0,.133-.586.552.552,0,0,0-.2-.046m.156,1.173c-.062,0-.08-.034-.11-.191a1.2,1.2,0,0,1-.592.2c-.2,0-.31-.1-.31-.273a1.244,1.244,0,0,1,.218-.606.831.831,0,0,1,.728-.434,1.667,1.667,0,0,1,.425.062l-.018.053a4.163,4.163,0,0,0-.2.9c0,.087.021.135.057.135a.72.72,0,0,0,.179-.048l.009.1a1.812,1.812,0,0,1-.381.108" transform="translate(-106.527 -19.312)" fill="#651f59"/>
      <path id="Tracé_131" data-name="Tracé 131" d="M138.414,21.278l-.269-.007-.14.65a1.3,1.3,0,0,0-.037.243c0,.044.018.069.064.069a.754.754,0,0,0,.149-.034l.034-.011.007.094a1.528,1.528,0,0,1-.439.11c-.071,0-.113-.032-.113-.092a1.359,1.359,0,0,1,.037-.232c.032-.11.053-.2.08-.326l.1-.471-.175,0,.023-.1c.225-.037.3-.209.358-.393l.158-.032-.08.374.271,0Z" transform="translate(-105.495 -19.501)" fill="#651f59"/>
      <path id="Tracé_132" data-name="Tracé 132" d="M138.824,21.021c-.158,0-.326.207-.406.517h.032c.305,0,.533-.154.533-.358a.156.156,0,0,0-.158-.158m-.335.634c-.025,0-.055,0-.1,0a.924.924,0,0,0-.012.152c0,.163.057.248.172.248a.891.891,0,0,0,.427-.172l.034.11a1.173,1.173,0,0,1-.592.211.29.29,0,0,1-.312-.331.918.918,0,0,1,.79-.976c.207,0,.324.09.324.25,0,.292-.317.51-.735.51" transform="translate(-104.927 -19.311)" fill="#651f59"/>
      <path id="Tracé_133" data-name="Tracé 133" d="M139.715,21.306l-.108-.009a.745.745,0,0,0,.007-.126c0-.057-.051-.1-.131-.1a.206.206,0,0,0-.142.073,1.532,1.532,0,0,0-.243.707l-.064.31c-.122.007-.154.009-.285.023.034-.119.057-.216.085-.324l.071-.294a2.194,2.194,0,0,0,.069-.393c0-.078-.018-.113-.055-.113a.344.344,0,0,0-.083.016l-.083.023-.009-.094a1.6,1.6,0,0,1,.425-.115.053.053,0,0,1,.06.046.689.689,0,0,1,.018.138.692.692,0,0,1,.367-.186.391.391,0,0,1,.216.085,1.936,1.936,0,0,0-.115.328" transform="translate(-104.105 -19.313)" fill="#651f59"/>
      <path id="Tracé_134" data-name="Tracé 134" d="M140.26,22.2a.1.1,0,0,1-.106-.094,1.408,1.408,0,0,1,.053-.266l.034-.133a3.539,3.539,0,0,0,.122-.588.064.064,0,0,0-.069-.073.552.552,0,0,0-.248.092.638.638,0,0,0-.22.181,1.083,1.083,0,0,0-.092.3c-.051.234-.087.393-.113.54-.126.011-.156.014-.287.03.067-.237.117-.434.165-.652a1.975,1.975,0,0,0,.067-.377c0-.073-.021-.11-.071-.11a.658.658,0,0,0-.161.041L139.328,21a1.466,1.466,0,0,1,.406-.108c.071,0,.094.041.094.191v.025a1.594,1.594,0,0,1,.68-.216c.11,0,.152.025.152.09a1.968,1.968,0,0,1-.087.429c-.039.147-.076.3-.09.372a.95.95,0,0,0-.03.184.065.065,0,0,0,.074.071.542.542,0,0,0,.168-.041l.009.094a1.922,1.922,0,0,1-.443.11" transform="translate(-103.348 -19.312)" fill="#651f59"/>
      <path id="Tracé_135" data-name="Tracé 135" d="M140.239,22.574a.1.1,0,0,1-.108-.094.957.957,0,0,1,.028-.147c.044-.168.1-.4.133-.519a1.535,1.535,0,0,0,.064-.324c0-.041-.018-.06-.055-.06a.443.443,0,0,0-.126.028l-.023.007-.009-.09a1.553,1.553,0,0,1,.443-.106c.048,0,.069.016.069.053a1.826,1.826,0,0,1-.076.361l-.051.188a2.867,2.867,0,0,0-.1.468.071.071,0,0,0,.076.076.662.662,0,0,0,.181-.044l.007.09a1.675,1.675,0,0,1-.452.113m.356-1.624a.152.152,0,0,1-.168-.152.191.191,0,0,1,.2-.193.143.143,0,0,1,.161.147.189.189,0,0,1-.2.2" transform="translate(-102.307 -19.685)" fill="#651f59"/>
      <path id="Tracé_136" data-name="Tracé 136" d="M141.313,21.278l-.273-.007-.138.65a1.46,1.46,0,0,0-.039.243.061.061,0,0,0,.067.069.672.672,0,0,0,.152-.034l.032-.011.009.094a1.522,1.522,0,0,1-.441.11c-.069,0-.11-.032-.11-.092a1.014,1.014,0,0,1,.037-.232c.03-.11.055-.2.083-.326l.1-.471-.172,0,.021-.1c.225-.037.3-.209.363-.393l.156-.032-.083.374.271,0Z" transform="translate(-101.737 -19.501)" fill="#651f59"/>
      <path id="Tracé_137" data-name="Tracé 137" d="M141.722,21.427c-.156,0-.326.209-.4.517h.028c.305,0,.537-.154.537-.356a.16.16,0,0,0-.161-.161m-.338.634c-.025,0-.051,0-.094,0a.729.729,0,0,0-.014.152c0,.163.057.248.172.248a.889.889,0,0,0,.429-.172l.034.11a1.181,1.181,0,0,1-.59.211.288.288,0,0,1-.312-.328.917.917,0,0,1,.785-.978c.2,0,.328.09.328.25,0,.292-.322.51-.739.51m.363-.96-.106-.08.4-.439.294.071Z" transform="translate(-101.168 -19.716)" fill="#651f59"/>
      <path id="Tracé_138" data-name="Tracé 138" d="M134.881,21.64a.385.385,0,1,0,0-.769.385.385,0,1,0,0,.769" transform="translate(-109.628 -19.342)" fill="#651f59"/>
      <path id="Tracé_139" data-name="Tracé 139" d="M128.949,21.64a.385.385,0,1,0-.395-.383.39.39,0,0,0,.395.383" transform="translate(-117.316 -19.342)" fill="#651f59"/>
    </g>
    <line id="Ligne_1" data-name="Ligne 1" x2="40.765" transform="translate(7.678 25.543)" fill="none" stroke="#000" stroke-width="0.068"/>
    <rect id="Rectangle_25" data-name="Rectangle 25" width="40.529" height="12.788" transform="translate(8.014 6.839)" fill="#fff"/>
    <g id="Groupe_31" data-name="Groupe 31" transform="translate(7.734 6.839)">
      <g id="Groupe_30" data-name="Groupe 30" clip-path="url(#clip-path)">
        <path id="Tracé_140" data-name="Tracé 140" d="M135.684,21.873a4.25,4.25,0,0,1-.443.124.464.464,0,0,0-.06.023,1.292,1.292,0,0,1,.8-.409,2.868,2.868,0,0,1,.478-.034c.142,0,.285.007.429.018-.152.025-.305.06-.464.094l-.276.057c-.161.032-.312.08-.466.126m6.933-8.481c-3.552-.021-7.091-.014-10.634-.007q-2.663,0-5.323.007c-.163-.007-.331-.014-.494-.023-.315-.016-.629-.034-.944-.034a5.766,5.766,0,0,0-1.088.092l-.11.021v.113c0,.48.011.96.021,1.44.014.71.028,1.442.011,2.161C124,19.028,124,20.913,124,22.739c0,1.463-.007,2.976-.034,4.469l0,.14h.138c1.026,0,2.055.007,3.084.014,2.067.011,4.136.023,6.193-.014l.08,0,.037-.073c.14-.276.425-.344.753-.427a2.553,2.553,0,0,0,.5-.156.517.517,0,0,1,.207,0,.942.942,0,0,0,.113.014c-.1.06-.188.119-.278.175-.117.076-.234.149-.347.218l-.34.2.395.046a7.451,7.451,0,0,0,.859.057,4.478,4.478,0,0,0,.73-.06,2.224,2.224,0,0,0,.53-.248,2.7,2.7,0,0,1,.237-.133l-.055-.138a5.37,5.37,0,0,1,1.676-.425,7.15,7.15,0,0,0,1.415-.31l.25-.17a1.036,1.036,0,0,0,.257-.168,1.827,1.827,0,0,1,.237-.158,1.477,1.477,0,0,0,.579-.818.228.228,0,0,0-.071-.156l-.1-.1-.1.1a4.644,4.644,0,0,1-1.318.99,3.488,3.488,0,0,1-1.408.3h-.007c.069-.018.14-.06.14-.149l-.007-.135h-.085a.208.208,0,0,0-.135-.039v-.021c.271-.161.53-.3.788-.439l.535-.3.443-.253h-.142l.05-.025c.129-.062.257-.124.4-.177l-.046-.262h-.018v-.032a.3.3,0,0,0,.145-.073l.138-.161.1-.021.172-.034-.078-.158a.178.178,0,0,0-.142-.1,1.239,1.239,0,0,0,.2-.507,2.3,2.3,0,0,1,.069-.237l.037-.168-.092-.007v-.253l-.234.257a2.408,2.408,0,0,1-1.164.542h-.154l-.048.009a.492.492,0,0,1-.413-.025.586.586,0,0,1-.152-.117,1.469,1.469,0,0,0-.145-.122,3.616,3.616,0,0,0-.8-.386,7.271,7.271,0,0,0-1.562-.324c.09-.018.179-.039.264-.064l.237-.071a3.636,3.636,0,0,1,1.291-.23l.025-.129c.273.037.54.1.818.163l.119.023a.3.3,0,0,1,.064.085.373.373,0,0,0,.2.186.98.98,0,0,0,.255.041.5.5,0,0,1,.266.067l.214.145v-.257a.363.363,0,0,0-.016-.1.394.394,0,0,1,.073.014.375.375,0,0,0,.276-.016.272.272,0,0,0,.133-.186,1.628,1.628,0,0,0,.177.1c.145.057.514.14.62,0a.216.216,0,0,0,.016-.209,2.936,2.936,0,0,0-.5-.687c-.069-.073-.138-.149-.2-.23l-.009-.2-.083-.007V20.5l-.073-.037c-.018-.009-.025-.016-.041-.08a.486.486,0,0,0-.057-.149.529.529,0,0,1-.039-.23.965.965,0,0,0-.041-.294,3.893,3.893,0,0,1-.119-.507c-.037-.207-.078-.4-.115-.6-.064-.3-.122-.579-.158-.87a1.851,1.851,0,0,1,.393-1.13c.069-.119.142-.241.2-.358a2.505,2.505,0,0,1,.818-.939l.046-.03.014-.051a2.564,2.564,0,0,1,.56-.935,2.231,2.231,0,0,1,.818-.54l.216-.1Z" transform="translate(-123.541 -14.701)" fill="#651f59"/>
      </g>
    </g>
    <g id="Groupe_32" data-name="Groupe 32" transform="translate(14.828 13.993)">
      <path id="Tracé_141" data-name="Tracé 141" d="M129.18,18.78c-.1.023-.186.09-.154.149.092.124.28-.03.436-.03-.188.062-.409.03-.563.184.126.09.248.028.374.028,0,.062.062.062.092.092a.569.569,0,0,0-.312.273c-.06.152-.216.211-.31.333V19.9a5.487,5.487,0,0,0-.9.788c.03,0,.03.03.03.057-.062.092-.188.124-.216.214,0,.032,0,.06.028.06.377-.119.657-.393,1-.514.25-.06.436-.211.654-.273.156-.03.342-.087.5-.119,0,.032,0,.06.028.06h.253c-.032.06-.156.03-.126.06a.386.386,0,0,0,.406,0,.521.521,0,0,1,.308-.06c.032,0,.032-.06.032-.09a.727.727,0,0,0,.25.03,8.8,8.8,0,0,0,2.152-.636,8.3,8.3,0,0,0-2.806-1.091c.094,0,.186.092.282,0-.158-.122-.344-.06-.5-.152.028,0,.09.03.124-.03a3.323,3.323,0,0,0-.749-.181.3.3,0,0,0,.248-.305c0-.028-.062-.028-.094-.028a1.645,1.645,0,0,0-.778.907c.218.122.468.032.687.062-.092.092-.248.092-.374.122" transform="translate(-125.843 -16.21)" fill="#fff"/>
      <path id="Tracé_142" data-name="Tracé 142" d="M128.926,18.432a4.374,4.374,0,0,1-1.059.85,9.251,9.251,0,0,1-1,1.543.1.1,0,0,0,.032.06,10.437,10.437,0,0,1,2.4-2.087c.062-.032-.094.09.032.06.4-.092.528-.485.714-.79.248-.39.684-.544,1-.875a.114.114,0,0,1-.03.09.114.114,0,0,0,.092.03c.126-.092.282-.062.377-.179a1.23,1.23,0,0,0-.811-.032,6.038,6.038,0,0,0-1.745,1.332" transform="translate(-126.866 -17.045)" fill="#fff"/>
      <path id="Tracé_143" data-name="Tracé 143" d="M128.073,18c.025-.053.062-.062.092-.122,0-.03,0-.06-.03-.06a.374.374,0,0,0-.25.271c0,.03.03.03.062.03a.238.238,0,0,0,.126-.119" transform="translate(-125.545 -16.039)" fill="#fff"/>
    </g>
    <g id="Groupe_34" data-name="Groupe 34" transform="translate(7.734 6.839)">
      <g id="Groupe_33" data-name="Groupe 33" clip-path="url(#clip-path)">
        <path id="Tracé_144" data-name="Tracé 144" d="M129.493,18.544c-.126.06-.34.06-.372.216-.03.062.094.03.154.03.218-.092.464,0,.648-.186-.062-.06-.152-.03-.214-.122-.064-.03-.158.032-.216.062" transform="translate(-116.855 -8.038)" fill="#fff"/>
        <path id="Tracé_145" data-name="Tracé 145" d="M132.221,19.984a5.643,5.643,0,0,0,.553-.218v.064c.462-.186.8-.588,1.263-.742.032,0,.094.062.156.032a1.265,1.265,0,0,1,.983-.464c0,.03,0,.062.032.062s.062,0,.062-.032c-.124.094-.246.188-.37.278-.03.032,0,.062.032.062.154-.062.243-.184.4-.246-.03.032-.03.094-.062.124a9.594,9.594,0,0,0-1.479,1.447h-.955c0-.03,0-.06-.032-.06-1.075.092-2.124.06-3.2.06.618-.09,1.233-.278,1.849-.338a3.4,3.4,0,0,0,.772-.03" transform="translate(-116.227 -7.812)" fill="#651f59"/>
        <path id="Tracé_146" data-name="Tracé 146" d="M138.516,25.172a.811.811,0,0,0,.032-.68c-.186-.276.186-.367.308-.551.092-.156-.062-.248-.09-.4-.032-.062-.156-.032-.218-.124.218-.09.553-.278.4-.556-.092-.152-.246-.4-.062-.553.216-.122.556-.092.65-.305.154-.372-.186-.68-.372-.987a4.842,4.842,0,0,0-.338-.494,2.523,2.523,0,0,1-.338-.648c-.094-.246.028-.462.028-.707a4.223,4.223,0,0,0-.216-1.387c-.09-.216-.122-.462-.214-.68a.934.934,0,0,0-.154-.367.277.277,0,0,1,0-.218,3.116,3.116,0,0,0,.367-.305.347.347,0,0,0-.122-.464c-.218-.092-.186.214-.34.276h-.094c-.025-.09.034-.119.094-.184,0-.03,0-.092-.03-.092-.124,0-.248-.032-.276-.092a2.486,2.486,0,0,0-1.206-.831,1.611,1.611,0,0,0,.372.06,1.14,1.14,0,0,0,.648-.06c.152-.062.186-.308.246-.464.062-.122-.032-.308-.094-.4a1.5,1.5,0,0,0-.645-.524h14.6c.032,4.561-.03,9.121-.06,13.679-5.762.094-11.523,0-17.289,0a3.026,3.026,0,0,1,1.079-1.6,1.826,1.826,0,0,1,.432-.124,14.218,14.218,0,0,1,1.573.216.416.416,0,0,1,.186.062,1.247,1.247,0,0,0,.581-.032.742.742,0,0,0,.556-.462" transform="translate(-110.383 -14.574)" fill="#9d94b0"/>
      </g>
    </g>
    <g id="Groupe_35" data-name="Groupe 35" transform="translate(33.123 12.084)">
      <path id="Tracé_147" data-name="Tracé 147" d="M136.05,16.513a2.033,2.033,0,0,0-.528,0,4.248,4.248,0,0,0-.689.181,2.172,2.172,0,0,1,.595-.3,2.7,2.7,0,0,1,.466-.124,1.12,1.12,0,0,1,.533-.028c.152.06.4.06.434.152.062.181-.094.363-.282.482-.032.062.094.094.094.154a.236.236,0,0,1-.188.09,1.155,1.155,0,0,0-.186.184c.062,0,0,.09.062.09-.122.152.067.455-.122.517a1.511,1.511,0,0,1-.716,0c.122-.032.278.028.372-.092v-.124c0-.03-.03-.03-.062-.03a.1.1,0,0,1-.062.03.136.136,0,0,0-.094-.119.532.532,0,0,1-.466-.181.456.456,0,0,1,.28-.032c.094,0,.062-.149.154-.211h.094c.188-.241.56-.3.622-.544,0-.062-.188-.062-.31-.09" transform="translate(-134.833 -16.214)" fill="gray"/>
    </g>
    <rect id="Rectangle_28" data-name="Rectangle 28" width="56.352" height="33.904" transform="translate(0.007 36.511)" fill="#651f59"/>
    <rect id="Rectangle_29" data-name="Rectangle 29" width="56.356" height="33.895" transform="translate(0.005 36.516)" fill="none" stroke="#fff" stroke-width="0.199"/>
    <g id="Groupe_36" data-name="Groupe 36" transform="translate(7.479 41.552)">
      <path id="Tracé_148" data-name="Tracé 148" d="M128.612,32.87l-1.332-2.82v2.239a.666.666,0,0,0,.069.386.378.378,0,0,0,.3.106h.119v.09h-1.2v-.09h.122a.346.346,0,0,0,.31-.131.7.7,0,0,0,.057-.361V30.1a.74.74,0,0,0-.053-.321.274.274,0,0,0-.129-.119.731.731,0,0,0-.308-.048V29.52h.976l1.252,2.622,1.231-2.622H131v.092h-.119a.356.356,0,0,0-.312.131.7.7,0,0,0-.055.358v2.188a.666.666,0,0,0,.069.386.381.381,0,0,0,.3.106H131v.09h-1.465v-.09h.124a.349.349,0,0,0,.31-.131.733.733,0,0,0,.055-.361V30.05l-1.33,2.82Z" transform="translate(-119.904 -28.432)" fill="#fff"/>
      <path id="Tracé_149" data-name="Tracé 149" d="M130.121,32.779v.092h-1.477v-.092h.122a.37.37,0,0,0,.31-.119.73.73,0,0,0,.062-.381V30.115a1.051,1.051,0,0,0-.034-.338.221.221,0,0,0-.1-.106.509.509,0,0,0-.237-.06h-.122V29.52h1.477v.092H130a.375.375,0,0,0-.308.119.734.734,0,0,0-.064.383v2.163a1.026,1.026,0,0,0,.034.335.213.213,0,0,0,.108.108.5.5,0,0,0,.23.057Z" transform="translate(-117.213 -28.432)" fill="#fff"/>
      <path id="Tracé_150" data-name="Tracé 150" d="M129.392,29.52h.935l2.108,2.512V30.1a.633.633,0,0,0-.071-.383.375.375,0,0,0-.3-.106h-.119V29.52h1.2v.092h-.122a.353.353,0,0,0-.31.129.738.738,0,0,0-.055.361v2.825h-.094l-2.273-2.7v2.062a.68.68,0,0,0,.069.388.4.4,0,0,0,.3.1h.124v.092h-1.2v-.092h.119a.352.352,0,0,0,.312-.129.732.732,0,0,0,.055-.361V29.961a1.32,1.32,0,0,0-.227-.225.94.94,0,0,0-.227-.1.773.773,0,0,0-.223-.023Z" transform="translate(-116.243 -28.432)" fill="#fff"/>
      <path id="Tracé_151" data-name="Tracé 151" d="M132.642,32.779v.092h-1.477v-.092h.122a.365.365,0,0,0,.308-.119.73.73,0,0,0,.062-.381V30.115a1.052,1.052,0,0,0-.034-.338.222.222,0,0,0-.1-.106.507.507,0,0,0-.234-.06h-.122V29.52h1.477v.092h-.126a.381.381,0,0,0-.308.119.733.733,0,0,0-.064.383v2.163a1.024,1.024,0,0,0,.034.335.214.214,0,0,0,.108.108.507.507,0,0,0,.23.057Z" transform="translate(-113.944 -28.432)" fill="#fff"/>
      <path id="Tracé_152" data-name="Tracé 152" d="M134.054,29.487v1.16h-.094a1.505,1.505,0,0,0-.163-.533.87.87,0,0,0-.338-.312.949.949,0,0,0-.452-.117.628.628,0,0,0-.439.158.468.468,0,0,0-.172.354.421.421,0,0,0,.108.28,2.874,2.874,0,0,0,.751.5,4.859,4.859,0,0,1,.659.386.938.938,0,0,1,.273.317.816.816,0,0,1,.094.383.849.849,0,0,1-.3.654,1.1,1.1,0,0,1-.781.276,1.836,1.836,0,0,1-.282-.021,2.879,2.879,0,0,1-.328-.09,1.417,1.417,0,0,0-.312-.078.134.134,0,0,0-.1.037.3.3,0,0,0-.053.152h-.1V31.843h.1a1.588,1.588,0,0,0,.177.54.829.829,0,0,0,.342.3,1.09,1.09,0,0,0,.5.119.732.732,0,0,0,.5-.163A.487.487,0,0,0,133.76,32a.758.758,0,0,0-.216-.234A5.734,5.734,0,0,0,133,31.45a4.822,4.822,0,0,1-.629-.386,1.022,1.022,0,0,1-.285-.317.756.756,0,0,1-.1-.379.818.818,0,0,1,.285-.622,1.041,1.041,0,0,1,.726-.259,1.5,1.5,0,0,1,.581.131.588.588,0,0,0,.2.06.148.148,0,0,0,.106-.037.291.291,0,0,0,.069-.154Z" transform="translate(-112.872 -28.474)" fill="#fff"/>
      <path id="Tracé_153" data-name="Tracé 153" d="M135.985,29.52l.037.785h-.1a.9.9,0,0,0-.076-.294.521.521,0,0,0-.209-.214.748.748,0,0,0-.344-.067h-.487v2.558a.68.68,0,0,0,.069.388.386.386,0,0,0,.3.1h.122v.092h-1.463v-.092h.122a.35.35,0,0,0,.31-.129.7.7,0,0,0,.057-.361V29.731h-.416a1.229,1.229,0,0,0-.344.032.5.5,0,0,0-.225.184.689.689,0,0,0-.11.358h-.1l.041-.785Z" transform="translate(-111.4 -28.432)" fill="#fff"/>
      <path id="Tracé_154" data-name="Tracé 154" d="M135.45,29.046h.567l.271.852h-.09Zm.057,1.272v1.325h.758a.621.621,0,0,0,.395-.09.545.545,0,0,0,.145-.4h.1v1.167h-.1a1.133,1.133,0,0,0-.071-.315.3.3,0,0,0-.149-.138.793.793,0,0,0-.319-.048h-.758v1.1a.948.948,0,0,0,.021.269.147.147,0,0,0,.071.078.435.435,0,0,0,.193.03h.586a1.537,1.537,0,0,0,.423-.041.6.6,0,0,0,.255-.154,1.977,1.977,0,0,0,.324-.464h.1l-.3.84h-2.659V33.4h.124a.507.507,0,0,0,.23-.057.219.219,0,0,0,.113-.119,1.149,1.149,0,0,0,.03-.321V30.718a.705.705,0,0,0-.067-.393.4.4,0,0,0-.305-.1h-.124v-.09h2.659l.037.733h-.1A1.189,1.189,0,0,0,137,30.5a.383.383,0,0,0-.191-.149,1.184,1.184,0,0,0-.361-.037Z" transform="translate(-109.589 -29.046)" fill="#fff"/>
      <path id="Tracé_155" data-name="Tracé 155" d="M136.88,31.148h.083l.057,0a1.128,1.128,0,0,0,.744-.207.656.656,0,0,0,.253-.528.678.678,0,0,0-.2-.51.723.723,0,0,0-.535-.2,2.248,2.248,0,0,0-.4.048Zm2.448,1.722h-.921L137.238,31.3c-.085,0-.154,0-.209,0h-.071l-.078,0v.974a.684.684,0,0,0,.069.393.367.367,0,0,0,.289.11h.138v.09H135.9v-.09h.131a.347.347,0,0,0,.312-.14.776.776,0,0,0,.053-.363V30.112a.65.65,0,0,0-.071-.39.378.378,0,0,0-.294-.11H135.9V29.52h1.256a3.044,3.044,0,0,1,.811.078.941.941,0,0,1,.441.287.732.732,0,0,1,.181.5.757.757,0,0,1-.207.535,1.182,1.182,0,0,1-.641.321l.712.962a1.757,1.757,0,0,0,.418.439,1.074,1.074,0,0,0,.459.14Z" transform="translate(-107.81 -28.432)" fill="#fff"/>
      <path id="Tracé_156" data-name="Tracé 156" d="M138.476,29.7v1.325h.76a.609.609,0,0,0,.393-.09.536.536,0,0,0,.147-.4h.094v1.167h-.094a1.131,1.131,0,0,0-.071-.315.325.325,0,0,0-.149-.138.8.8,0,0,0-.319-.048h-.76v1.1a.949.949,0,0,0,.021.269.147.147,0,0,0,.071.078.45.45,0,0,0,.193.03h.586a1.556,1.556,0,0,0,.425-.041.627.627,0,0,0,.255-.154,2.047,2.047,0,0,0,.324-.464h.1l-.3.84h-2.657v-.09h.124a.515.515,0,0,0,.23-.057.215.215,0,0,0,.11-.119,1.15,1.15,0,0,0,.03-.321V30.1a.705.705,0,0,0-.067-.393.4.4,0,0,0-.3-.1h-.124v-.09h2.657l.037.733h-.1a1.188,1.188,0,0,0-.119-.365.4.4,0,0,0-.191-.149,1.194,1.194,0,0,0-.361-.037Z" transform="translate(-105.738 -28.43)" fill="#fff"/>
      <path id="Tracé_157" data-name="Tracé 157" d="M126.522,35.272a2.677,2.677,0,0,0,.542.069,1.3,1.3,0,0,0,.978-.4,1.733,1.733,0,0,0,0-2.186,1.324,1.324,0,0,0-1-.4,2.214,2.214,0,0,0-.521.073Zm-.985.241v-.09h.131a.346.346,0,0,0,.31-.138.742.742,0,0,0,.057-.363V32.757a.683.683,0,0,0-.071-.393.383.383,0,0,0-.3-.11h-.131v-.09h1.4a3.11,3.11,0,0,1,1.176.17,1.386,1.386,0,0,1,.65.567,1.725,1.725,0,0,1,.246.921,1.643,1.643,0,0,1-.439,1.167,1.954,1.954,0,0,1-1.493.524Z" transform="translate(-121.24 -25.003)" fill="#fff"/>
      <path id="Tracé_158" data-name="Tracé 158" d="M128.119,32.346v1.325h.758a.639.639,0,0,0,.395-.087.566.566,0,0,0,.147-.4h.094v1.167h-.094a1.194,1.194,0,0,0-.073-.315.3.3,0,0,0-.149-.138.844.844,0,0,0-.319-.046h-.758v1.1a.972.972,0,0,0,.021.269.143.143,0,0,0,.071.076.435.435,0,0,0,.193.03h.586a1.538,1.538,0,0,0,.423-.041.6.6,0,0,0,.255-.154,1.939,1.939,0,0,0,.324-.462h.1l-.3.84h-2.657v-.092h.122a.507.507,0,0,0,.23-.057.223.223,0,0,0,.113-.117,1.18,1.18,0,0,0,.03-.324V32.748a.709.709,0,0,0-.067-.395.4.4,0,0,0-.305-.1h-.122v-.09h2.657l.037.733h-.1a1.269,1.269,0,0,0-.117-.365.414.414,0,0,0-.193-.149,1.167,1.167,0,0,0-.358-.037Z" transform="translate(-119.165 -25.003)" fill="#fff"/>
      <path id="Tracé_159" data-name="Tracé 159" d="M131.97,34.588l.083.016-.3.912h-2.668v-.094h.131a.355.355,0,0,0,.312-.135.807.807,0,0,0,.053-.367V32.757a.715.715,0,0,0-.069-.393.379.379,0,0,0-.3-.108h-.131v-.092h1.562v.092a.981.981,0,0,0-.386.048.311.311,0,0,0-.152.131,1.107,1.107,0,0,0-.039.379v2.1a.714.714,0,0,0,.039.282.2.2,0,0,0,.094.078,1.783,1.783,0,0,0,.4.023h.253a1.857,1.857,0,0,0,.558-.057.764.764,0,0,0,.292-.2,1.79,1.79,0,0,0,.264-.457" transform="translate(-116.637 -25.003)" fill="#fff"/>
      <path id="Tracé_160" data-name="Tracé 160" d="M132.723,34.255l-.586-1.355-.6,1.355Zm.071.181H131.46l-.234.528a.834.834,0,0,0-.087.292.167.167,0,0,0,.076.135.694.694,0,0,0,.324.073v.094h-1.086v-.094a.607.607,0,0,0,.28-.094,1.578,1.578,0,0,0,.287-.482l1.212-2.758h.09l1.2,2.788a1.323,1.323,0,0,0,.264.436.555.555,0,0,0,.328.11v.094h-1.36v-.094a.49.49,0,0,0,.278-.067.165.165,0,0,0,.073-.138.991.991,0,0,0-.1-.342Z" transform="translate(-114.869 -25.047)" fill="#fff"/>
      <path id="Tracé_161" data-name="Tracé 161" d="M136.31,32.165v.09a.567.567,0,0,0-.278.115,1.05,1.05,0,0,0-.241.37l-1.2,2.852H134.5L133.206,32.7a1.456,1.456,0,0,0-.14-.273.444.444,0,0,0-.156-.119.746.746,0,0,0-.25-.057v-.09h1.41v.09a.651.651,0,0,0-.312.08.178.178,0,0,0-.071.145,1.091,1.091,0,0,0,.117.386l.875,1.966.818-1.94a1.287,1.287,0,0,0,.117-.4.188.188,0,0,0-.074-.135.486.486,0,0,0-.25-.094l-.041-.007v-.09Z" transform="translate(-112.008 -25.003)" fill="#fff"/>
      <path id="Tracé_162" data-name="Tracé 162" d="M135.861,35.425v.09h-1.479v-.09h.124a.377.377,0,0,0,.31-.122.757.757,0,0,0,.06-.381V32.756a1.044,1.044,0,0,0-.034-.335.21.21,0,0,0-.1-.106.507.507,0,0,0-.234-.06h-.124v-.092h1.479v.092h-.126a.372.372,0,0,0-.308.122.745.745,0,0,0-.062.379v2.165a1.121,1.121,0,0,0,.032.335.213.213,0,0,0,.108.108.482.482,0,0,0,.23.06Z" transform="translate(-109.774 -25.004)" fill="#fff"/>
      <path id="Tracé_163" data-name="Tracé 163" d="M138.049,34.588l.085.016-.3.912h-2.671v-.094h.131a.355.355,0,0,0,.312-.135.766.766,0,0,0,.055-.367V32.757a.688.688,0,0,0-.071-.393.382.382,0,0,0-.3-.108h-.131v-.092h1.564v.092a.987.987,0,0,0-.388.048.3.3,0,0,0-.149.131,1.031,1.031,0,0,0-.041.379v2.1a.665.665,0,0,0,.041.282.194.194,0,0,0,.092.078,1.8,1.8,0,0,0,.4.023h.253a1.819,1.819,0,0,0,.556-.057.738.738,0,0,0,.294-.2,1.665,1.665,0,0,0,.264-.457" transform="translate(-108.756 -25.003)" fill="#fff"/>
      <path id="Tracé_164" data-name="Tracé 164" d="M139.425,34.588l.085.016-.3.912h-2.668v-.094h.129a.352.352,0,0,0,.312-.135.766.766,0,0,0,.055-.367V32.757a.689.689,0,0,0-.071-.393.379.379,0,0,0-.3-.108h-.129v-.092h1.562v.092a1,1,0,0,0-.388.048.315.315,0,0,0-.149.131,1.03,1.03,0,0,0-.041.379v2.1a.664.664,0,0,0,.041.282.205.205,0,0,0,.092.078,1.8,1.8,0,0,0,.4.023h.253a1.819,1.819,0,0,0,.556-.057.738.738,0,0,0,.294-.2,1.663,1.663,0,0,0,.264-.457" transform="translate(-106.97 -25.003)" fill="#fff"/>
      <path id="Tracé_165" data-name="Tracé 165" d="M138.9,32.346v1.325h.76a.631.631,0,0,0,.393-.087.546.546,0,0,0,.147-.4h.094v1.167H140.2a1.131,1.131,0,0,0-.071-.315.32.32,0,0,0-.152-.138.831.831,0,0,0-.317-.046h-.76v1.1a.973.973,0,0,0,.021.269A.143.143,0,0,0,139,35.3a.449.449,0,0,0,.193.03h.586a1.568,1.568,0,0,0,.425-.041.628.628,0,0,0,.255-.154,2,2,0,0,0,.321-.462h.1l-.3.84h-2.657v-.092h.122a.517.517,0,0,0,.232-.057.227.227,0,0,0,.11-.117,1.18,1.18,0,0,0,.03-.324V32.748a.709.709,0,0,0-.067-.395.4.4,0,0,0-.305-.1h-.122v-.09h2.657l.037.733h-.1a1.138,1.138,0,0,0-.117-.365.419.419,0,0,0-.191-.149,1.194,1.194,0,0,0-.361-.037Z" transform="translate(-105.184 -25.003)" fill="#fff"/>
      <path id="Tracé_166" data-name="Tracé 166" d="M139.421,34.744v-.108a.836.836,0,0,0,.4-.259A.588.588,0,0,0,139.97,34a.126.126,0,0,0-.023-.078.042.042,0,0,0-.037-.021.354.354,0,0,0-.122.046.2.2,0,0,1-.1.023.286.286,0,0,1-.2-.069.292.292,0,0,1,.023-.406.34.34,0,0,1,.234-.087.393.393,0,0,1,.3.142.524.524,0,0,1,.133.377A.742.742,0,0,1,140,34.4a1.212,1.212,0,0,1-.576.342" transform="translate(-103.242 -23.391)" fill="#fff"/>
      <path id="Tracé_167" data-name="Tracé 167" d="M124.651,37.918a2.825,2.825,0,0,0,.542.067,1.306,1.306,0,0,0,.978-.4,1.733,1.733,0,0,0,0-2.186,1.336,1.336,0,0,0-1-.4,2.2,2.2,0,0,0-.521.073Zm-.985.241v-.092h.131a.351.351,0,0,0,.31-.135.759.759,0,0,0,.057-.365V35.4a.664.664,0,0,0-.073-.393.377.377,0,0,0-.294-.108h-.131v-.092h1.4a3.173,3.173,0,0,1,1.176.17,1.408,1.408,0,0,1,.65.567,1.725,1.725,0,0,1,.246.921,1.656,1.656,0,0,1-.439,1.169,1.965,1.965,0,0,1-1.495.524Z" transform="translate(-123.666 -21.575)" fill="#fff"/>
      <path id="Tracé_168" data-name="Tracé 168" d="M126.249,34.99v1.327H127a.625.625,0,0,0,.4-.09.551.551,0,0,0,.145-.4h.1V37h-.1a1.155,1.155,0,0,0-.071-.315.31.31,0,0,0-.149-.135A.8.8,0,0,0,127,36.5h-.756v1.1a.971.971,0,0,0,.021.269.147.147,0,0,0,.071.078.435.435,0,0,0,.193.03h.586a1.56,1.56,0,0,0,.423-.041.606.606,0,0,0,.255-.156,1.956,1.956,0,0,0,.324-.462h.1l-.3.84h-2.659v-.092h.122a.509.509,0,0,0,.232-.057.215.215,0,0,0,.113-.117,1.182,1.182,0,0,0,.03-.324V35.392a.688.688,0,0,0-.069-.395.406.406,0,0,0-.305-.1h-.122v-.092h2.659l.037.733h-.1a1.146,1.146,0,0,0-.119-.363.387.387,0,0,0-.191-.152,1.184,1.184,0,0,0-.361-.037Z" transform="translate(-121.592 -21.575)" fill="#fff"/>
      <path id="Tracé_169" data-name="Tracé 169" d="M130.1,37.232l.085.016-.3.912h-2.668v-.092h.129a.361.361,0,0,0,.315-.138.807.807,0,0,0,.053-.367V35.4a.669.669,0,0,0-.071-.393.38.38,0,0,0-.3-.108h-.129v-.092h1.562V34.9a.924.924,0,0,0-.386.051.3.3,0,0,0-.152.129,1.03,1.03,0,0,0-.041.379v2.1a.657.657,0,0,0,.041.282.2.2,0,0,0,.094.078,1.782,1.782,0,0,0,.4.023h.25a1.837,1.837,0,0,0,.558-.057.716.716,0,0,0,.292-.2,1.574,1.574,0,0,0,.264-.457" transform="translate(-119.063 -21.575)" fill="#fff"/>
      <path id="Tracé_170" data-name="Tracé 170" d="M130.852,36.9l-.586-1.355-.6,1.355Zm.071.181h-1.334l-.237.528a.87.87,0,0,0-.085.292.17.17,0,0,0,.073.135.658.658,0,0,0,.326.073V38.2h-1.086v-.094a.567.567,0,0,0,.28-.094,1.514,1.514,0,0,0,.287-.48l1.212-2.758h.087l1.2,2.785a1.261,1.261,0,0,0,.264.436.521.521,0,0,0,.328.11V38.2h-1.359v-.094a.48.48,0,0,0,.278-.064.172.172,0,0,0,.073-.14,1.027,1.027,0,0,0-.1-.342Z" transform="translate(-117.294 -21.618)" fill="#fff"/>
      <path id="Tracé_171" data-name="Tracé 171" d="M131.225,34.9v-.092H132.7V34.9h-.122a.372.372,0,0,0-.308.119.73.73,0,0,0-.062.381v1.637a1.814,1.814,0,0,1-.085.613.942.942,0,0,1-.294.409.754.754,0,0,1-.5.175.574.574,0,0,1-.379-.115.341.341,0,0,1-.135-.262.235.235,0,0,1,.064-.184.282.282,0,0,1,.2-.076.228.228,0,0,1,.147.051.9.9,0,0,1,.163.278c.039.087.09.131.149.131a.162.162,0,0,0,.129-.078.5.5,0,0,0,.062-.289V35.4a1.024,1.024,0,0,0-.034-.335.213.213,0,0,0-.108-.108.507.507,0,0,0-.23-.057Z" transform="translate(-114.4 -21.575)" fill="#fff"/>
      <path id="Tracé_172" data-name="Tracé 172" d="M132.741,34.99v1.327h.758a.621.621,0,0,0,.395-.09.551.551,0,0,0,.145-.4h.1V37h-.1a1.155,1.155,0,0,0-.071-.315.3.3,0,0,0-.149-.135.793.793,0,0,0-.319-.048h-.758v1.1a.969.969,0,0,0,.021.269.147.147,0,0,0,.071.078.435.435,0,0,0,.193.03h.586a1.537,1.537,0,0,0,.422-.041.605.605,0,0,0,.255-.156,1.891,1.891,0,0,0,.324-.462h.1l-.3.84h-2.659v-.092h.124a.507.507,0,0,0,.23-.057.215.215,0,0,0,.113-.117,1.183,1.183,0,0,0,.03-.324V35.392a.715.715,0,0,0-.067-.395.409.409,0,0,0-.305-.1h-.124v-.092h2.659l.037.733h-.1a1.223,1.223,0,0,0-.117-.363.4.4,0,0,0-.193-.152,1.166,1.166,0,0,0-.358-.037Z" transform="translate(-113.176 -21.575)" fill="#fff"/>
      <path id="Tracé_173" data-name="Tracé 173" d="M135.562,34.9v-.092h1.222V34.9h-.129a.346.346,0,0,0-.312.165.71.71,0,0,0-.055.356v1.359a2.329,2.329,0,0,1-.1.781.986.986,0,0,1-.4.475,1.483,1.483,0,0,1-.82.2,1.565,1.565,0,0,1-.859-.193,1.035,1.035,0,0,1-.416-.512,2.827,2.827,0,0,1-.078-.824V35.4a.639.639,0,0,0-.09-.406.377.377,0,0,0-.282-.094h-.131v-.092h1.49V34.9h-.133a.345.345,0,0,0-.3.129.71.71,0,0,0-.064.372v1.46a3.05,3.05,0,0,0,.037.448.927.927,0,0,0,.133.393.759.759,0,0,0,.278.232,1.01,1.01,0,0,0,.448.09,1.248,1.248,0,0,0,.6-.142.774.774,0,0,0,.365-.367,2.066,2.066,0,0,0,.1-.756V35.4a.688.688,0,0,0-.071-.393.387.387,0,0,0-.3-.108Z" transform="translate(-111.427 -21.575)" fill="#fff"/>
      <path id="Tracé_174" data-name="Tracé 174" d="M134.8,34.809h.935l2.108,2.512V35.39a.642.642,0,0,0-.071-.386.378.378,0,0,0-.3-.106h-.117v-.09h1.2v.09h-.122a.351.351,0,0,0-.31.131.724.724,0,0,0-.057.361v2.822h-.092l-2.271-2.7v2.064a.692.692,0,0,0,.067.386.4.4,0,0,0,.3.1h.124v.092h-1.2v-.092h.119a.353.353,0,0,0,.312-.131.721.721,0,0,0,.055-.358V35.248a1.521,1.521,0,0,0-.227-.225.939.939,0,0,0-.227-.1.762.762,0,0,0-.223-.023Z" transform="translate(-109.236 -21.575)" fill="#fff"/>
      <path id="Tracé_175" data-name="Tracé 175" d="M137.545,34.99v1.327h.758a.617.617,0,0,0,.395-.09.542.542,0,0,0,.145-.4h.1V37h-.1a1.287,1.287,0,0,0-.069-.315.316.316,0,0,0-.152-.135.793.793,0,0,0-.319-.048h-.758v1.1a.974.974,0,0,0,.021.269.148.148,0,0,0,.071.078.442.442,0,0,0,.193.03h.586a1.538,1.538,0,0,0,.423-.041.606.606,0,0,0,.255-.156,1.892,1.892,0,0,0,.324-.462h.1l-.3.84h-2.657v-.092h.122a.5.5,0,0,0,.23-.057.215.215,0,0,0,.113-.117,1.178,1.178,0,0,0,.03-.324V35.392a.715.715,0,0,0-.067-.395.409.409,0,0,0-.305-.1h-.122v-.092h2.657l.037.733h-.1a1.223,1.223,0,0,0-.117-.363.4.4,0,0,0-.193-.152,1.167,1.167,0,0,0-.358-.037Z" transform="translate(-106.945 -21.575)" fill="#fff"/>
      <path id="Tracé_176" data-name="Tracé 176" d="M140.1,34.775v1.16H140a1.475,1.475,0,0,0-.163-.533.872.872,0,0,0-.338-.312.966.966,0,0,0-.452-.115.637.637,0,0,0-.439.156.481.481,0,0,0-.172.356.416.416,0,0,0,.11.28,2.776,2.776,0,0,0,.749.494,4.572,4.572,0,0,1,.659.388.9.9,0,0,1,.273.317.807.807,0,0,1,.094.381.857.857,0,0,1-.3.657,1.115,1.115,0,0,1-.781.276,1.836,1.836,0,0,1-.282-.021,3.1,3.1,0,0,1-.326-.092,1.456,1.456,0,0,0-.315-.078.137.137,0,0,0-.1.037.306.306,0,0,0-.053.154h-.1V37.131h.1a1.641,1.641,0,0,0,.177.54.864.864,0,0,0,.342.3,1.1,1.1,0,0,0,.5.117.721.721,0,0,0,.5-.163.5.5,0,0,0,.186-.386.507.507,0,0,0-.071-.25.784.784,0,0,0-.216-.234c-.067-.051-.248-.154-.542-.315a5.338,5.338,0,0,1-.629-.383,1.045,1.045,0,0,1-.285-.317.765.765,0,0,1-.1-.381.813.813,0,0,1,.285-.62,1.032,1.032,0,0,1,.726-.262,1.516,1.516,0,0,1,.583.131.537.537,0,0,0,.2.062.154.154,0,0,0,.108-.037.333.333,0,0,0,.067-.156Z" transform="translate(-105.041 -21.619)" fill="#fff"/>
      <path id="Tracé_177" data-name="Tracé 177" d="M141.335,34.775v1.16h-.094a1.523,1.523,0,0,0-.163-.533.887.887,0,0,0-.338-.312.975.975,0,0,0-.455-.115.635.635,0,0,0-.436.156.472.472,0,0,0-.172.356.414.414,0,0,0,.108.28,2.843,2.843,0,0,0,.751.494,4.714,4.714,0,0,1,.659.388.921.921,0,0,1,.273.317.807.807,0,0,1,.094.381.857.857,0,0,1-.3.657,1.115,1.115,0,0,1-.781.276,1.814,1.814,0,0,1-.282-.021,2.946,2.946,0,0,1-.326-.092,1.455,1.455,0,0,0-.315-.078.139.139,0,0,0-.1.037.335.335,0,0,0-.051.154h-.1V37.131h.1a1.539,1.539,0,0,0,.177.54.848.848,0,0,0,.342.3,1.088,1.088,0,0,0,.5.117.721.721,0,0,0,.5-.163.5.5,0,0,0,.184-.386.5.5,0,0,0-.069-.25.765.765,0,0,0-.218-.234,5.954,5.954,0,0,0-.542-.315,5.068,5.068,0,0,1-.627-.383,1.045,1.045,0,0,1-.285-.317.765.765,0,0,1-.1-.381.813.813,0,0,1,.285-.62,1.022,1.022,0,0,1,.723-.262,1.5,1.5,0,0,1,.583.131.557.557,0,0,0,.2.062.152.152,0,0,0,.106-.037.31.31,0,0,0,.069-.156Z" transform="translate(-103.434 -21.619)" fill="#fff"/>
      <path id="Tracé_178" data-name="Tracé 178" d="M141.381,34.99v1.327h.758a.609.609,0,0,0,.393-.09.542.542,0,0,0,.147-.4h.1V37h-.1a1.154,1.154,0,0,0-.071-.315.321.321,0,0,0-.149-.135.8.8,0,0,0-.319-.048h-.758v1.1a.969.969,0,0,0,.021.269.143.143,0,0,0,.069.078.455.455,0,0,0,.2.03h.583a1.557,1.557,0,0,0,.425-.041.62.62,0,0,0,.255-.156,1.956,1.956,0,0,0,.324-.462h.1l-.3.84H140.4v-.092h.124a.515.515,0,0,0,.23-.057.216.216,0,0,0,.113-.117,1.321,1.321,0,0,0,.028-.324V35.392a.722.722,0,0,0-.064-.395.413.413,0,0,0-.305-.1H140.4v-.092h2.659l.034.733H143a1.148,1.148,0,0,0-.119-.363.4.4,0,0,0-.191-.152,1.184,1.184,0,0,0-.361-.037Z" transform="translate(-101.975 -21.575)" fill="#fff"/>
      <path id="Tracé_179" data-name="Tracé 179" d="M125.58,37.634v1.325h.758a.624.624,0,0,0,.395-.087.551.551,0,0,0,.145-.4h.1v1.167h-.1a1.154,1.154,0,0,0-.071-.315.31.31,0,0,0-.149-.135.8.8,0,0,0-.319-.048h-.758v1.1a.973.973,0,0,0,.021.269.153.153,0,0,0,.069.078.454.454,0,0,0,.2.03h.586a1.548,1.548,0,0,0,.423-.041.62.62,0,0,0,.255-.156,1.955,1.955,0,0,0,.324-.462h.1l-.3.84H124.6v-.092h.124a.507.507,0,0,0,.23-.057.208.208,0,0,0,.113-.117,1.212,1.212,0,0,0,.028-.324V38.036a.722.722,0,0,0-.064-.395.413.413,0,0,0-.305-.1H124.6v-.092h2.659l.037.733h-.1a1.146,1.146,0,0,0-.119-.363.4.4,0,0,0-.191-.152,1.184,1.184,0,0,0-.361-.037Z" transform="translate(-122.459 -18.147)" fill="#fff"/>
      <path id="Tracé_180" data-name="Tracé 180" d="M128.835,37.453l.039.785h-.1a.912.912,0,0,0-.076-.3.515.515,0,0,0-.209-.211.757.757,0,0,0-.347-.069h-.485v2.56a.692.692,0,0,0,.067.386.4.4,0,0,0,.3.1h.119V40.8h-1.46v-.092h.122a.351.351,0,0,0,.31-.131.721.721,0,0,0,.055-.358v-2.56h-.413a1.208,1.208,0,0,0-.344.034.473.473,0,0,0-.225.181.7.7,0,0,0-.112.361h-.1l.041-.785Z" transform="translate(-120.665 -18.147)" fill="#fff"/>
      <path id="Tracé_181" data-name="Tracé 181" d="M128.886,40.562a2.69,2.69,0,0,0,.542.067,1.307,1.307,0,0,0,.981-.4,1.741,1.741,0,0,0,0-2.186,1.337,1.337,0,0,0-1-.4,2.23,2.23,0,0,0-.521.073Zm-.983.241v-.092h.129a.345.345,0,0,0,.31-.135.759.759,0,0,0,.057-.365V38.045a.664.664,0,0,0-.073-.393.375.375,0,0,0-.294-.108H127.9v-.092h1.4a3.2,3.2,0,0,1,1.178.17,1.387,1.387,0,0,1,.645.567,1.7,1.7,0,0,1,.246.921,1.647,1.647,0,0,1-.436,1.169,1.965,1.965,0,0,1-1.495.524Z" transform="translate(-118.173 -18.147)" fill="#fff"/>
      <path id="Tracé_182" data-name="Tracé 182" d="M130.484,37.634v1.325h.76a.616.616,0,0,0,.393-.087.542.542,0,0,0,.147-.4h.094v1.167h-.094a1.153,1.153,0,0,0-.071-.315.32.32,0,0,0-.149-.135.8.8,0,0,0-.319-.048h-.76v1.1a.973.973,0,0,0,.021.269.148.148,0,0,0,.071.078.449.449,0,0,0,.193.03h.586a1.557,1.557,0,0,0,.425-.041.634.634,0,0,0,.255-.156,2.025,2.025,0,0,0,.324-.462h.1l-.3.84H129.5v-.092h.124a.515.515,0,0,0,.23-.057.2.2,0,0,0,.11-.117,1.181,1.181,0,0,0,.03-.324V38.036a.715.715,0,0,0-.067-.395.4.4,0,0,0-.3-.1H129.5v-.092h2.657l.037.733h-.1a1.147,1.147,0,0,0-.119-.363.408.408,0,0,0-.191-.152,1.194,1.194,0,0,0-.361-.037Z" transform="translate(-116.099 -18.147)" fill="#fff"/>
      <path id="Tracé_183" data-name="Tracé 183" d="M133.033,37.42v1.157h-.092a1.473,1.473,0,0,0-.165-.533.865.865,0,0,0-.335-.312.982.982,0,0,0-.455-.115.631.631,0,0,0-.436.156.475.475,0,0,0-.175.356.416.416,0,0,0,.11.28,2.8,2.8,0,0,0,.749.494,5.2,5.2,0,0,1,.661.388.945.945,0,0,1,.273.317.835.835,0,0,1,.094.381.854.854,0,0,1-.3.657,1.124,1.124,0,0,1-.783.276,1.8,1.8,0,0,1-.28-.021,3.083,3.083,0,0,1-.328-.092,1.384,1.384,0,0,0-.312-.076.148.148,0,0,0-.1.034.306.306,0,0,0-.053.154h-.094V39.774h.094a1.622,1.622,0,0,0,.177.54.84.84,0,0,0,.344.3,1.083,1.083,0,0,0,.5.119.73.73,0,0,0,.5-.165.5.5,0,0,0,.184-.383.534.534,0,0,0-.071-.253.729.729,0,0,0-.216-.234c-.069-.051-.248-.154-.542-.315A5.631,5.631,0,0,1,131.35,39a1.031,1.031,0,0,1-.28-.317.765.765,0,0,1-.1-.381.813.813,0,0,1,.285-.62,1.021,1.021,0,0,1,.723-.259,1.492,1.492,0,0,1,.583.129.55.55,0,0,0,.2.062.154.154,0,0,0,.108-.037.332.332,0,0,0,.069-.154Z" transform="translate(-114.193 -18.19)" fill="#fff"/>
      <path id="Tracé_184" data-name="Tracé 184" d="M134.861,37.42v1.157h-.094a1.432,1.432,0,0,0-.163-.533.871.871,0,0,0-.338-.312.966.966,0,0,0-.452-.115.631.631,0,0,0-.436.156.468.468,0,0,0-.174.356.416.416,0,0,0,.11.28,2.72,2.72,0,0,0,.749.494,5.029,5.029,0,0,1,.661.388.913.913,0,0,1,.271.317.835.835,0,0,1,.094.381.846.846,0,0,1-.3.657,1.115,1.115,0,0,1-.781.276,1.835,1.835,0,0,1-.282-.021,3.1,3.1,0,0,1-.326-.092,1.414,1.414,0,0,0-.312-.076.148.148,0,0,0-.1.034.327.327,0,0,0-.055.154h-.092V39.774h.092a1.612,1.612,0,0,0,.181.54.826.826,0,0,0,.34.3,1.1,1.1,0,0,0,.5.119.728.728,0,0,0,.505-.165.5.5,0,0,0,.184-.383.509.509,0,0,0-.071-.253.756.756,0,0,0-.216-.234c-.067-.051-.248-.154-.542-.315A5.337,5.337,0,0,1,133.18,39a1.048,1.048,0,0,1-.285-.317.788.788,0,0,1-.094-.381.805.805,0,0,1,.285-.62,1.021,1.021,0,0,1,.723-.259,1.482,1.482,0,0,1,.581.129.563.563,0,0,0,.2.062.156.156,0,0,0,.11-.037.292.292,0,0,0,.067-.154Z" transform="translate(-111.824 -18.19)" fill="#fff"/>
      <path id="Tracé_185" data-name="Tracé 185" d="M134.9,39.093c.087.016.168.03.239.037a1.378,1.378,0,0,0,.177.014.608.608,0,0,0,.455-.2.7.7,0,0,0,.2-.514.894.894,0,0,0-.094-.4.6.6,0,0,0-.257-.28.783.783,0,0,0-.384-.092,1.458,1.458,0,0,0-.331.046Zm0,.142v.974a.693.693,0,0,0,.069.395.378.378,0,0,0,.294.108h.133V40.8h-1.479v-.092h.131a.356.356,0,0,0,.312-.138.831.831,0,0,0,.051-.365V38.045a.688.688,0,0,0-.069-.393.385.385,0,0,0-.294-.108h-.131v-.092h1.265a2.292,2.292,0,0,1,.728.092,1.012,1.012,0,0,1,.45.315.779.779,0,0,1,.184.519.865.865,0,0,1-.278.668,1.115,1.115,0,0,1-.785.255,2.341,2.341,0,0,1-.273-.016c-.094-.011-.2-.028-.308-.051" transform="translate(-110.372 -18.147)" fill="#fff"/>
      <path id="Tracé_186" data-name="Tracé 186" d="M136.895,37.6a.923.923,0,0,0-.742.335,1.839,1.839,0,0,0-.349,1.212,1.972,1.972,0,0,0,.361,1.265.909.909,0,0,0,.733.333,1.019,1.019,0,0,0,.8-.365,1.761,1.761,0,0,0,.315-1.162,1.981,1.981,0,0,0-.347-1.281.954.954,0,0,0-.774-.338m.048-.179a1.581,1.581,0,0,1,1.164.494,1.681,1.681,0,0,1,.491,1.235,1.74,1.74,0,0,1-.5,1.27,1.691,1.691,0,0,1-2.4.011,1.735,1.735,0,0,1-.485-1.272,1.7,1.7,0,0,1,1.72-1.738" transform="translate(-108.684 -18.19)" fill="#fff"/>
      <path id="Tracé_187" data-name="Tracé 187" d="M137.766,39.081h.085l.057,0a1.15,1.15,0,0,0,.744-.207.663.663,0,0,0,.25-.528.678.678,0,0,0-.2-.51.728.728,0,0,0-.535-.2,2.245,2.245,0,0,0-.4.048Zm2.448,1.722h-.919l-1.169-1.566c-.087,0-.156,0-.209,0h-.071l-.08,0v.974a.664.664,0,0,0,.071.393.371.371,0,0,0,.289.108h.135V40.8h-1.477v-.092h.129a.348.348,0,0,0,.312-.138.743.743,0,0,0,.055-.363V38.045a.659.659,0,0,0-.074-.393.381.381,0,0,0-.294-.108h-.129v-.092h1.254a3.022,3.022,0,0,1,.811.078.942.942,0,0,1,.443.287.74.74,0,0,1,.181.5.775.775,0,0,1-.207.535,1.206,1.206,0,0,1-.643.321l.712.96a1.776,1.776,0,0,0,.42.441,1.1,1.1,0,0,0,.457.138Z" transform="translate(-106.659 -18.147)" fill="#fff"/>
      <path id="Tracé_188" data-name="Tracé 188" d="M141.1,37.453l.039.785h-.1a.989.989,0,0,0-.074-.3.506.506,0,0,0-.211-.211.737.737,0,0,0-.342-.069h-.489v2.56a.666.666,0,0,0,.069.386.4.4,0,0,0,.3.1h.122V40.8h-1.463v-.092h.119a.346.346,0,0,0,.31-.131.688.688,0,0,0,.057-.358v-2.56h-.413a1.2,1.2,0,0,0-.344.034.484.484,0,0,0-.225.181.7.7,0,0,0-.112.361h-.1l.041-.785Z" transform="translate(-104.77 -18.147)" fill="#fff"/>
      <path id="Tracé_189" data-name="Tracé 189" d="M141.756,37.42v1.157h-.094a1.474,1.474,0,0,0-.163-.533.871.871,0,0,0-.338-.312.966.966,0,0,0-.452-.115.637.637,0,0,0-.439.156.48.48,0,0,0-.172.356.416.416,0,0,0,.11.28,2.722,2.722,0,0,0,.749.494,4.806,4.806,0,0,1,.659.388.9.9,0,0,1,.273.317.808.808,0,0,1,.094.381.854.854,0,0,1-.3.657,1.115,1.115,0,0,1-.781.276,1.836,1.836,0,0,1-.282-.021,3.105,3.105,0,0,1-.326-.092,1.393,1.393,0,0,0-.315-.076.146.146,0,0,0-.1.034.307.307,0,0,0-.053.154h-.1V39.774h.1a1.621,1.621,0,0,0,.177.54.849.849,0,0,0,.342.3,1.09,1.09,0,0,0,.5.119.722.722,0,0,0,.5-.165.494.494,0,0,0,.186-.383.509.509,0,0,0-.071-.253.785.785,0,0,0-.216-.234c-.067-.051-.248-.154-.542-.315a5.342,5.342,0,0,1-.629-.383,1.019,1.019,0,0,1-.285-.317.765.765,0,0,1-.1-.381.813.813,0,0,1,.285-.62,1.03,1.03,0,0,1,.726-.259,1.51,1.51,0,0,1,.583.129.537.537,0,0,0,.2.062.144.144,0,0,0,.106-.037.31.31,0,0,0,.069-.154Z" transform="translate(-102.888 -18.19)" fill="#fff"/>
    </g>
  </g>
</svg>
