<?xml version="1.0" encoding="utf-8"?>
<svg id="Groupe_39" data-name="Groupe 39" xmlns="http://www.w3.org/2000/svg" width="69.781" height="70.613" viewBox="0 0 69.781 70.613">
  <rect id="Rectangle_30" data-name="Rectangle 30" width="69.781" height="70.613" fill="#fff"/>
  <g id="Groupe_38" data-name="Groupe 38" transform="translate(10.96 8.09)">
    <path id="Tracé_190" data-name="Tracé 190" d="M165.013,22.7a.259.259,0,0,1-.225-.129.268.268,0,0,1,0-.28,5.943,5.943,0,0,1,.7-.919c.11-.122.234-.262.393-.452a18.148,18.148,0,0,1,14.026-6.533,18.044,18.044,0,0,1,13.544,5.991.267.267,0,0,1,.05.28.257.257,0,0,1-.227.165L165.029,22.7h-.016" transform="translate(-156.285 -14.386)" fill="#651f59"/>
    <path id="Tracé_191" data-name="Tracé 191" d="M200.657,27.54h-.018l-37.144-2.606a.266.266,0,0,1-.181-.09.279.279,0,0,1-.062-.2c.3-3.617,1.846-5.139,1.913-5.2a.269.269,0,0,1,.172-.071l32.714-1.242a.272.272,0,0,1,.207.087c2.758,3.107,2.668,8.82,2.664,9.064a.269.269,0,0,1-.087.188.265.265,0,0,1-.177.071" transform="translate(-158.229 -9.534)" fill="#651f59"/>
    <path id="Tracé_192" data-name="Tracé 192" d="M165.9,33.136a.261.261,0,0,1-.216-.115A16.95,16.95,0,0,1,163.158,22.1a.263.263,0,0,1,.278-.223l37.371,2.466a.261.261,0,0,1,.243.276,14.29,14.29,0,0,1-1.626,6.669.252.252,0,0,1-.207.122l-33.3,1.727Z" transform="translate(-158.48 -4.675)" fill="#651f59"/>
    <path id="Tracé_193" data-name="Tracé 193" d="M179.608,35.668a18,18,0,0,1-14.451-6.979.272.272,0,0,1-.028-.273.261.261,0,0,1,.225-.152l29.472-1.511a.266.266,0,0,1,.239.4,17.729,17.729,0,0,1-15.457,8.515" transform="translate(-155.826 1.646)" fill="#651f59"/>
    <path id="Tracé_194" data-name="Tracé 194" d="M198.685,36.937a.265.265,0,0,0,.08-.2.259.259,0,0,0-.08-.2.355.355,0,0,0-.25-.076h-1.851a.586.586,0,0,0-.246.046.269.269,0,0,0-.14.14.6.6,0,0,0-.044.25v2.632a.455.455,0,0,0,.1.333.446.446,0,0,0,.328.1h1.906a.356.356,0,0,0,.248-.076.264.264,0,0,0,.085-.2.26.26,0,0,0-.085-.207.346.346,0,0,0-.248-.078h-1.635v-1h1.456a.337.337,0,0,0,.241-.076.28.28,0,0,0,0-.388.364.364,0,0,0-.241-.071h-1.456V37.01h1.58a.366.366,0,0,0,.25-.073m-3.92,2.981a.319.319,0,0,0,.248.108.334.334,0,0,0,.257-.106.466.466,0,0,0,.1-.326V36.836a.462.462,0,0,0-.1-.326.334.334,0,0,0-.257-.106.326.326,0,0,0-.25.106.481.481,0,0,0-.1.326v2.758a.459.459,0,0,0,.1.324m-2.538-2.891a1.814,1.814,0,0,1,.547.071.684.684,0,0,1,.381.328,1.528,1.528,0,0,1,.156.776,1.3,1.3,0,0,1-.351,1.036.573.573,0,0,1-.186.108.9.9,0,0,1-.2.048c-.067,0-.158.009-.276.009h-.53V37.026Zm-1.063-.459a.452.452,0,0,0-.1.333v2.567a.924.924,0,0,0,.032.276.265.265,0,0,0,.124.165.6.6,0,0,0,.289.057h.914a2.67,2.67,0,0,0,.427-.03,1.34,1.34,0,0,0,.356-.108,1.177,1.177,0,0,0,.305-.2,1.472,1.472,0,0,0,.292-.374,1.731,1.731,0,0,0,.168-.471,2.942,2.942,0,0,0,.053-.574,1.785,1.785,0,0,0-.54-1.426,1.145,1.145,0,0,0-.464-.25,2.483,2.483,0,0,0-.611-.067h-.914a.443.443,0,0,0-.328.1m-2.981.087a.869.869,0,0,0-.1-.135.387.387,0,0,0-.117-.083.357.357,0,0,0-.163-.032.392.392,0,0,0-.223.069.376.376,0,0,0-.149.175.785.785,0,0,0-.037.271v2.7a.448.448,0,0,0,.087.3.309.309,0,0,0,.241.1.3.3,0,0,0,.234-.1.429.429,0,0,0,.094-.3V37.568l1.316,2.039c.037.057.074.11.113.165a.793.793,0,0,0,.122.138.374.374,0,0,0,.142.087.507.507,0,0,0,.17.028c.253,0,.379-.152.379-.462V36.813a.469.469,0,0,0-.087-.308.307.307,0,0,0-.239-.1.286.286,0,0,0-.232.1.456.456,0,0,0-.087.308V38.9L188.3,36.831l-.113-.177m-2.944.5.521,1.447h-1.033Zm.958,2.606a.69.69,0,0,0,.085.158.288.288,0,0,0,.1.083.335.335,0,0,0,.142.028.341.341,0,0,0,.241-.1.321.321,0,0,0,.1-.225,1.137,1.137,0,0,0-.108-.374l-.9-2.262c-.041-.113-.078-.2-.106-.271a.926.926,0,0,0-.1-.188.438.438,0,0,0-.158-.145.475.475,0,0,0-.246-.057.457.457,0,0,0-.241.057.425.425,0,0,0-.158.147,1.045,1.045,0,0,0-.115.227q-.052.138-.09.234l-.886,2.276a1.943,1.943,0,0,0-.076.214.413.413,0,0,0-.025.147.3.3,0,0,0,.1.22.323.323,0,0,0,.234.1.262.262,0,0,0,.225-.092,1.742,1.742,0,0,0,.165-.354l.163-.448h1.41l.165.439c.023.055.048.117.08.186m-5.1-.106a.93.93,0,0,0,.073.184.389.389,0,0,0,.135.138.381.381,0,0,0,.2.053.372.372,0,0,0,.257-.083.415.415,0,0,0,.124-.186,2.768,2.768,0,0,0,.09-.319l.556-2.232v2.42a.433.433,0,0,0,.092.3.3.3,0,0,0,.227.1.317.317,0,0,0,.239-.1.456.456,0,0,0,.087-.3V36.854a.353.353,0,0,0-.117-.31.566.566,0,0,0-.319-.08h-.218a.786.786,0,0,0-.285.037.239.239,0,0,0-.131.129,2.184,2.184,0,0,0-.1.3l-.505,1.917-.5-1.917a2.2,2.2,0,0,0-.1-.3.243.243,0,0,0-.133-.129.787.787,0,0,0-.285-.037h-.216a.561.561,0,0,0-.319.08.348.348,0,0,0-.119.31v2.772a.44.44,0,0,0,.092.3.289.289,0,0,0,.23.1.3.3,0,0,0,.234-.1.444.444,0,0,0,.09-.3v-2.42l.556,2.232c.018.073.039.145.055.214m-2.877-2.6a.44.44,0,0,1,.278.423.434.434,0,0,1-.092.294.506.506,0,0,1-.262.152,1.982,1.982,0,0,1-.425.044h-.629V37h.645a1.455,1.455,0,0,1,.485.053m-.576,1.47a.67.67,0,0,1,.243.186,2.657,2.657,0,0,1,.271.395l.28.475c.067.11.117.2.158.253a.536.536,0,0,0,.136.142.352.352,0,0,0,.2.055.356.356,0,0,0,.175-.039.3.3,0,0,0,.119-.106.251.251,0,0,0,.044-.14.835.835,0,0,0-.073-.243,3.186,3.186,0,0,0-.207-.4,3.047,3.047,0,0,0-.305-.418,1.278,1.278,0,0,0-.356-.3,1.249,1.249,0,0,0,.664-.331.9.9,0,0,0,.218-.627,1,1,0,0,0-.067-.361.95.95,0,0,0-.188-.3.913.913,0,0,0-.289-.2,1.032,1.032,0,0,0-.3-.083,3.342,3.342,0,0,0-.4-.021h-1.139a.443.443,0,0,0-.328.1.452.452,0,0,0-.1.333v2.694a.508.508,0,0,0,.092.324.32.32,0,0,0,.259.108.329.329,0,0,0,.255-.106.469.469,0,0,0,.1-.326V38.468h.246a.836.836,0,0,1,.308.051m-2.7.386a.908.908,0,0,1-.854.558.927.927,0,0,1-.386-.078.868.868,0,0,1-.312-.239,1.06,1.06,0,0,1-.209-.4,1.936,1.936,0,0,1,0-1.072,1.1,1.1,0,0,1,.2-.39.821.821,0,0,1,.308-.232.9.9,0,0,1,.388-.08.96.96,0,0,1,.524.145.916.916,0,0,1,.351.425,1.694,1.694,0,0,1,.122.668,1.618,1.618,0,0,1-.133.7m-1.573-2.377a1.448,1.448,0,0,0-.528.363,1.6,1.6,0,0,0-.333.574,2.307,2.307,0,0,0-.115.742,2.366,2.366,0,0,0,.11.733,1.618,1.618,0,0,0,.324.579,1.426,1.426,0,0,0,.537.374,2.083,2.083,0,0,0,1.454,0,1.423,1.423,0,0,0,.535-.372,1.579,1.579,0,0,0,.324-.576,2.336,2.336,0,0,0,.11-.739,2.152,2.152,0,0,0-.2-.955,1.4,1.4,0,0,0-.583-.627,1.817,1.817,0,0,0-.925-.223,1.964,1.964,0,0,0-.71.124m-3.686.126a.751.751,0,0,0-.106-.135.387.387,0,0,0-.117-.083.347.347,0,0,0-.161-.032.4.4,0,0,0-.225.069.39.39,0,0,0-.149.175.778.778,0,0,0-.039.271v2.7a.449.449,0,0,0,.092.3.294.294,0,0,0,.237.1.308.308,0,0,0,.239-.1.44.44,0,0,0,.09-.3V37.568l1.316,2.039c.039.057.078.11.115.165a.715.715,0,0,0,.124.138.384.384,0,0,0,.14.087.5.5,0,0,0,.17.028c.253,0,.379-.152.379-.462V36.813a.456.456,0,0,0-.087-.308.3.3,0,0,0-.239-.1.3.3,0,0,0-.234.1.482.482,0,0,0-.085.308V38.9l-1.35-2.064c-.034-.062-.073-.119-.108-.177" transform="translate(-150.919 14.158)" fill="#651f59"/>
    <path id="Tracé_195" data-name="Tracé 195" d="M204.862,36.022A1.6,1.6,0,0,1,206.5,34.5a1.44,1.44,0,0,1,1.458,1.518Zm3.619.818a.444.444,0,0,0,.485-.491,2.46,2.46,0,0,0-2.482-2.717c-1.761,0-2.648,1.385-2.648,3.036a3.259,3.259,0,0,0,.714,2.074,2.44,2.44,0,0,0,1.966.765,2.557,2.557,0,0,0,2.071-.9,1.4,1.4,0,0,0,.3-.622.515.515,0,0,0-.56-.471c-.225,0-.3.11-.464.4a1.641,1.641,0,0,1-2.593.218,2.048,2.048,0,0,1-.411-1.291ZM202.614,32.1a.453.453,0,0,0-.507-.48.443.443,0,0,0-.473.48v6.868a.458.458,0,0,0,.508.491.448.448,0,0,0,.473-.491Zm-3.107,4.423c0,1.091-.379,2.172-1.644,2.172-1.3,0-1.674-.992-1.674-2.129,0-1.093.409-2.108,1.642-2.108,1.2,0,1.676.939,1.676,2.064m1.013-.011c0-1.7-.884-2.882-2.645-2.882-1.8,0-2.7,1.187-2.7,2.914,0,1.18.4,2.96,2.625,2.96,2.43,0,2.721-1.975,2.721-2.992m-7.215-.023c0,.909-.193,2.207-1.5,2.207-1.212,0-1.568-1.19-1.568-2.216s.411-2.021,1.568-2.021C192.992,34.461,193.3,35.5,193.3,36.491Zm-4.051,4.533a.5.5,0,0,0,1.006,0V38.732a2.338,2.338,0,0,0,1.782.774c1.663,0,2.289-1.518,2.289-2.981,0-1.5-.778-2.893-2.42-2.893a2.1,2.1,0,0,0-1.651.751v-.131c0-.358-.131-.576-.519-.576a.451.451,0,0,0-.487.491Zm-1.963-4.5c0,1.091-.379,2.172-1.642,2.172-1.3,0-1.676-.992-1.676-2.129,0-1.093.411-2.108,1.642-2.108,1.2,0,1.676.939,1.676,2.064m1.013-.011c0-1.7-.884-2.882-2.643-2.882-1.807,0-2.7,1.187-2.7,2.914,0,1.18.4,2.96,2.622,2.96,2.43,0,2.721-1.975,2.721-2.992M179.892,39c0,.34.2.459.485.459.315,0,.5-.131.5-.459V36.668c0-.951.248-1.823,1.415-2.009.347-.055.595-.11.595-.491,0-.363-.257-.491-.572-.491a1.546,1.546,0,0,0-1.481,1.026v-.5c0-.273-.1-.524-.441-.524-.312,0-.5.152-.5.457Zm-3.4-.971c0,1.07.443,1.431,1.511,1.431.292,0,.627-.055.627-.425s-.216-.393-.519-.416c-.583-.044-.627-.305-.627-.928v-3.1h.671a.389.389,0,0,0,.411-.436.371.371,0,0,0-.411-.413h-.671V32.463c0-.328-.181-.471-.5-.471a.433.433,0,0,0-.485.468v1.281h-.583a.381.381,0,0,0-.411.413.389.389,0,0,0,.411.436h.572Zm-3.2-5.984a.534.534,0,0,0,.1-.285.5.5,0,0,0-.54-.468.418.418,0,0,0-.452.328l-.326.96a.521.521,0,0,0-.021.129.363.363,0,0,0,.379.34.32.32,0,0,0,.3-.163Zm-2.354,3.975a1.6,1.6,0,0,1,1.63-1.518,1.438,1.438,0,0,1,1.458,1.518Zm3.617.818a.446.446,0,0,0,.487-.491,2.462,2.462,0,0,0-2.485-2.717c-1.761,0-2.645,1.385-2.645,3.036a3.268,3.268,0,0,0,.712,2.074,2.44,2.44,0,0,0,1.966.765,2.564,2.564,0,0,0,2.074-.9,1.415,1.415,0,0,0,.3-.622.514.514,0,0,0-.56-.471c-.225,0-.3.11-.464.4a1.641,1.641,0,0,1-2.593.218,2.059,2.059,0,0,1-.409-1.291Zm-13.489,2.131a.459.459,0,0,0,.519.491.467.467,0,0,0,.482-.491V36.24c0-.48.1-1.736,1.373-1.736.921,0,.994.762.994,1.486v2.981a.454.454,0,0,0,.5.491.478.478,0,0,0,.508-.491V35.956a1.322,1.322,0,0,1,1.341-1.451c.822,0,1.015.59,1.015,1.311v3.155a.5.5,0,0,0,1,0V35.639c0-1.288-.519-2.019-1.878-2.019a2.117,2.117,0,0,0-1.738.884,1.6,1.6,0,0,0-1.557-.884,1.864,1.864,0,0,0-1.578.762v-.2c0-.383-.184-.512-.473-.512a.45.45,0,0,0-.508.468Z" transform="translate(-161.061 7.533)" fill="#651f59"/>
    <path id="Tracé_196" data-name="Tracé 196" d="M166.718,37.264a.675.675,0,0,1,.528-.225.7.7,0,0,1,.542.223,1.065,1.065,0,0,1,.237.666h-1.557a1.112,1.112,0,0,1,.25-.664m1.952,1.059c.124-.062.188-.2.188-.423a1.484,1.484,0,0,0-.181-.7,1.407,1.407,0,0,0-.54-.556,1.666,1.666,0,0,0-.863-.214,1.917,1.917,0,0,0-.705.124,1.419,1.419,0,0,0-.535.363,1.574,1.574,0,0,0-.333.565,2.237,2.237,0,0,0-.113.714,1.789,1.789,0,0,0,.459,1.3,1.7,1.7,0,0,0,1.288.48,2.021,2.021,0,0,0,.641-.1,1.506,1.506,0,0,0,.462-.241,1.051,1.051,0,0,0,.278-.3.589.589,0,0,0,.09-.278.263.263,0,0,0-.083-.207.3.3,0,0,0-.214-.071.292.292,0,0,0-.188.055c-.106.1-.193.184-.262.241a1.627,1.627,0,0,1-.218.17.929.929,0,0,1-.248.115,1.079,1.079,0,0,1-.282.037.783.783,0,0,1-.42-.117.812.812,0,0,1-.305-.338,1.164,1.164,0,0,1-.117-.524h1.681a1.113,1.113,0,0,0,.521-.1" transform="translate(-155.199 14.198)" fill="#651f59"/>
    <path id="Tracé_197" data-name="Tracé 197" d="M167.936,36.646a.388.388,0,0,0-.145-.163.419.419,0,0,0-.2-.055.369.369,0,0,0-.294.124.55.55,0,0,0-.106.372v2.51a.578.578,0,0,0,.117.39.392.392,0,0,0,.305.14.411.411,0,0,0,.315-.133.571.571,0,0,0,.122-.4V38.345a2.806,2.806,0,0,1,.062-.726.789.789,0,0,1,.278-.381.691.691,0,0,1,.418-.138.48.48,0,0,1,.471.227,1.474,1.474,0,0,1,.119.659v1.447a.579.579,0,0,0,.117.39.4.4,0,0,0,.312.14.39.39,0,0,0,.308-.135.579.579,0,0,0,.117-.395V37.817a3.712,3.712,0,0,0-.025-.471,1.041,1.041,0,0,0-.108-.344.958.958,0,0,0-.4-.425,1.229,1.229,0,0,0-.606-.149,1.314,1.314,0,0,0-.62.142,1.515,1.515,0,0,0-.5.445V36.91a.576.576,0,0,0-.055-.264" transform="translate(-153.126 14.189)" fill="#651f59"/>
    <path id="Tracé_198" data-name="Tracé 198" d="M166.452,39.853a.376.376,0,0,0,.292.129.367.367,0,0,0,.287-.124.537.537,0,0,0,.112-.374V36.966a.574.574,0,0,0-.115-.39.405.405,0,0,0-.31-.129.416.416,0,0,0-.312.131.557.557,0,0,0-.119.388v1.056a2.885,2.885,0,0,1-.071.811.767.767,0,0,1-.282.34.709.709,0,0,1-.409.131.51.51,0,0,1-.354-.117.616.616,0,0,1-.181-.321,2.125,2.125,0,0,1-.051-.507V36.966a.557.557,0,0,0-.119-.388.417.417,0,0,0-.315-.131.4.4,0,0,0-.308.129.563.563,0,0,0-.117.39v1.722a1.612,1.612,0,0,0,.161.795.943.943,0,0,0,.383.363,1.19,1.19,0,0,0,.558.129,1.49,1.49,0,0,0,.459-.064,1.263,1.263,0,0,0,.372-.2,2.035,2.035,0,0,0,.324-.333v.113a.527.527,0,0,0,.115.361" transform="translate(-157.154 14.213)" fill="#651f59"/>
    <path id="Tracé_199" data-name="Tracé 199" d="M164.743,39.04a.745.745,0,0,1-.62.3.756.756,0,0,1-.45-.133.841.841,0,0,1-.294-.393,1.795,1.795,0,0,1,0-1.194.826.826,0,0,1,.3-.39.756.756,0,0,1,.445-.133.745.745,0,0,1,.62.3,1.585,1.585,0,0,1,0,1.651m.976-1.539a1.534,1.534,0,0,0-.344-.56,1.566,1.566,0,0,0-.544-.365,2.031,2.031,0,0,0-1.41,0,1.53,1.53,0,0,0-.544.358,1.607,1.607,0,0,0-.342.56,2.13,2.13,0,0,0-.119.721,2.04,2.04,0,0,0,.119.716,1.573,1.573,0,0,0,.344.56,1.531,1.531,0,0,0,.542.363,1.834,1.834,0,0,0,.7.129,1.921,1.921,0,0,0,.707-.124,1.549,1.549,0,0,0,.886-.925,2.189,2.189,0,0,0,0-1.433" transform="translate(-159.313 14.217)" fill="#651f59"/>
    <path id="Tracé_200" data-name="Tracé 200" d="M163.131,37.467a.374.374,0,0,1-.078.253.459.459,0,0,1-.23.133,1.717,1.717,0,0,1-.406.041h-.565v-.843h.583a1.447,1.447,0,0,1,.455.046h0a.387.387,0,0,1,.175.145.41.41,0,0,1,.064.225m.781,1.963a3.384,3.384,0,0,0-.51-.813,1.384,1.384,0,0,0-.259-.239,1.17,1.17,0,0,0,.558-.31.913.913,0,0,0,.227-.648,1.016,1.016,0,0,0-.067-.372.939.939,0,0,0-.2-.312.922.922,0,0,0-.3-.2,1.108,1.108,0,0,0-.312-.085,3.41,3.41,0,0,0-.4-.018h-1.118a.484.484,0,0,0-.358.115.506.506,0,0,0-.113.361v2.641a.527.527,0,0,0,.1.349.355.355,0,0,0,.292.126.368.368,0,0,0,.285-.122.5.5,0,0,0,.108-.354V38.491h.191a.757.757,0,0,1,.283.046h0a.635.635,0,0,1,.218.17,2.573,2.573,0,0,1,.26.383l.276.462c.064.11.117.2.156.25a.523.523,0,0,0,.147.154.4.4,0,0,0,.223.064.408.408,0,0,0,.2-.044.337.337,0,0,0,.135-.124.285.285,0,0,0,.051-.163.785.785,0,0,0-.076-.259" transform="translate(-161.064 14.19)" fill="#651f59"/>
  </g>
</svg>
