<?xml version="1.0" encoding="utf-8"?>
<svg id="Groupe_28" data-name="Groupe 28" xmlns="http://www.w3.org/2000/svg" width="71.725" height="70.151" viewBox="0 0 71.725 70.151">
  <rect id="Rectangle_21" data-name="Rectangle 21" width="71.725" height="70.151" fill="#fff"/>
  <g id="Groupe_22" data-name="Groupe 22" transform="translate(14.687 49.022)">
    <path id="Tracé_75" data-name="Tracé 75" d="M50.7,34.922l-.007-2.161,1.247,0h0a1.1,1.1,0,0,1,.859.315,1.065,1.065,0,0,1,.246.733c0,.919-.675,1.114-1.247,1.114ZM53.4,33.794a1.3,1.3,0,0,0-1.449-1.382h-.007l-1.6,0,.011,4.267H50.7l0-1.424,1.107,0c.11,0,.223,0,.326-.014l1.022,1.433h.429L52.49,35.163a1.289,1.289,0,0,0,.912-1.369" transform="translate(-50.345 -32.412)" fill="#651f59"/>
  </g>
  <path id="Tracé_76" data-name="Tracé 76" d="M52.593,36.334l0-1.558,2.064-.005v-.338l-2.065.005,0-1.683L55,32.751v-.345l-2.759.007.011,4.266,2.878-.007,0-.345Z" transform="translate(-33.203 16.602)" fill="#651f59"/>
  <path id="Tracé_77" data-name="Tracé 77" d="M52.749,32.931l.385,0,1.056-1.016-.43-.04Z" transform="translate(-32.541 15.911)" fill="#651f59"/>
  <g id="Groupe_23" data-name="Groupe 23" transform="translate(22.954 48.983)">
    <path id="Tracé_78" data-name="Tracé 78" d="M55.943,34.625v.338l1.612,0v.919a2.34,2.34,0,0,1-1.44.473h0a1.807,1.807,0,0,1-1.814-1.8,1.769,1.769,0,0,1,.528-1.27,1.8,1.8,0,0,1,1.281-.53h.007a1.982,1.982,0,0,1,1.38.51l.048.046.232-.262L57.723,33a2.264,2.264,0,0,0-1.61-.6h-.007a2.153,2.153,0,1,0,0,4.306h0a2.764,2.764,0,0,0,1.761-.625l.025-.021,0-1.438Z" transform="translate(-53.945 -32.395)" fill="#651f59"/>
  </g>
  <path id="Tracé_79" data-name="Tracé 79" d="M56.255,32.4l.009,4.266.345,0L56.6,32.4Z" transform="translate(-27.996 16.591)" fill="#651f59"/>
  <g id="Groupe_24" data-name="Groupe 24" transform="translate(29.91 48.962)">
    <path id="Tracé_80" data-name="Tracé 80" d="M59.139,32.737a1.8,1.8,0,1,1,0,3.6h-.007a1.806,1.806,0,0,1-1.814-1.791,1.784,1.784,0,0,1,.528-1.274,1.825,1.825,0,0,1,1.284-.533Zm0-.351h0a2.154,2.154,0,1,0,0,4.308h.007a2.154,2.154,0,1,0,0-4.308" transform="translate(-56.974 -32.386)" fill="#651f59"/>
  </g>
  <path id="Tracé_81" data-name="Tracé 81" d="M62.824,32.386l-.343,0,.009,3.584-2.829-3.576h-.24l.011,4.266.345,0-.009-3.584,2.813,3.551.02.025h.235Z" transform="translate(-23.892 16.576)" fill="#651f59"/>
  <path id="Tracé_82" data-name="Tracé 82" d="M50.8,35.162l.013,5.376-4.239-5.366-.726,0,.018,7.377,1.013,0-.014-5.378,4.25,5.367.717,0-.02-7.378Z" transform="translate(-41.483 20.17)" fill="#651f59"/>
  <g id="Groupe_25" data-name="Groupe 25" transform="translate(11.984 55.286)">
    <path id="Tracé_83" data-name="Tracé 83" d="M52.9,41.538a2.7,2.7,0,0,1-1.913-.785,2.631,2.631,0,0,1-.8-1.883A2.7,2.7,0,0,1,52.9,36.178H52.9a2.7,2.7,0,0,1,2.7,2.675,2.642,2.642,0,0,1-.781,1.89,2.694,2.694,0,0,1-1.915.795Zm0-6.4H52.89a3.722,3.722,0,1,0,.009,7.445h.011A3.722,3.722,0,0,0,52.9,35.14" transform="translate(-49.168 -35.14)" fill="#651f59"/>
    <path id="Tracé_84" data-name="Tracé 84" d="M54.152,39.2l-.009-3.027,1.789,0h.009a1.571,1.571,0,0,1,1.224.436,1.53,1.53,0,0,1,.34,1.022,1.448,1.448,0,0,1-.466,1.192,2.046,2.046,0,0,1-1.327.379Zm4.381-1.587a2.323,2.323,0,0,0-2.574-2.473h-.011l-2.818.007.018,7.376h1.013l-.007-2.3,1.568,0c.14,0,.28,0,.416-.014l1.653,2.31,1.261,0-1.86-2.57a2.347,2.347,0,0,0,1.341-2.324" transform="translate(-44.032 -35.136)" fill="#651f59"/>
  </g>
  <path id="Tracé_85" data-name="Tracé 85" d="M62.375,35.132l-2.7,4.6-2.726-4.582-.753,0,.018,7.377,1.011,0-.011-4.974,2.466,4.161,2.434-4.17.013,4.968,1.013,0-.018-7.377Z" transform="translate(-28.074 20.133)" fill="#651f59"/>
  <path id="Tracé_86" data-name="Tracé 86" d="M62.069,39.572l1.192-2.813,1.217,2.806Zm.85-4.446-3.2,7.385,1.107,0,.818-1.936,3.252-.009.838,1.931,1.1,0L63.61,35.124Z" transform="translate(-23.502 20.125)" fill="#651f59"/>
  <path id="Tracé_87" data-name="Tracé 87" d="M68.266,35.115l.013,5.376L64.04,35.126l-.726,0,.018,7.377,1.013,0-.014-5.378,4.25,5.367.717,0-.02-7.378Z" transform="translate(-18.845 20.109)" fill="#651f59"/>
  <g id="Groupe_26" data-name="Groupe 26" transform="translate(52.414 55.21)">
    <path id="Tracé_88" data-name="Tracé 88" d="M67.8,41.459l-.011-5.318,1.309,0h.009a2.5,2.5,0,0,1,1.807.774,2.69,2.69,0,0,1-1.633,4.545Zm1.307-6.352H69.1l-2.324,0,.018,7.378,2.533-.007h.023a3.7,3.7,0,0,0-.241-7.376" transform="translate(-66.774 -35.107)" fill="#651f59"/>
  </g>
  <rect id="Rectangle_22" data-name="Rectangle 22" width="1.013" height="7.378" transform="matrix(1, -0.002, 0.002, 1, 59.974, 55.196)" fill="#651f59"/>
  <path id="Tracé_89" data-name="Tracé 89" d="M76.5,41.439l-4.1.011L72.4,39.4l3.34-.009,0-1.018-3.342.009-.005-2.251,3.909-.011,0-1.027-4.921.013.02,7.377,5.111-.013Z" transform="translate(-8.397 20.084)" fill="#651f59"/>
  <g id="Groupe_27" data-name="Groupe 27" transform="translate(12.253 7.4)">
    <path id="Tracé_90" data-name="Tracé 90" d="M97,54.976Q74.053,52.6,51.1,50.225C47.779,40.273,49,28.55,54.888,18.255q19.162-1.988,38.324-3.968C88.638,27,89.864,41.919,97,54.976" transform="translate(-49.285 -14.287)" fill="#651f59"/>
    <path id="Tracé_91" data-name="Tracé 91" d="M66.195,22.911c-.175.2.037.677.276,1.054-.728-.071-1.511.17-1.573.6a.626.626,0,0,0,0,.067.653.653,0,0,1-.129-.328c.037-.383.567-.673,1.206-.611a1,1,0,0,1-.1-.942.662.662,0,0,1,.818-.31.954.954,0,0,1-.5-.919c.034-.186.386-.232.423-.241a.342.342,0,0,0-.131.2c-.062.3.3.822.82,1.215-.579-.073-.928,0-1.107.216m-2.225-.854h-.028c-.537-.007-.625-.485-.8-.822-.129-.241-.237-.671-.158-.618a1.014,1.014,0,0,0,.981-.016,1.015,1.015,0,0,0,.985.016c.076-.053-.03.377-.158.618-.181.342-.257.831-.818.822m-1.5-2.776a.57.57,0,0,1-.181-.25,2.206,2.206,0,0,1,.776-.076c.347.034.491.122.489.147a.477.477,0,0,1-.56.4.709.709,0,0,1-.524-.225m1.495.728c.149,0,.528-.053.528-.053a.047.047,0,0,1,.044.034.041.041,0,0,1-.021.051l-.521.3-.025.007-.018,0-.547-.3a.045.045,0,0,1-.023-.051.047.047,0,0,1,.046-.037s.388.053.537.053m.886-1.054a2.216,2.216,0,0,1,.776.076.591.591,0,0,1-.181.25.712.712,0,0,1-.524.225.478.478,0,0,1-.56-.4c0-.025.14-.113.489-.147M81.5,25.946c.012-.177.2-.333.5-.432l.048-.028c-.5.094-.921,0-1.059-.273a.711.711,0,0,1,.207-.756l.011-.028a4.5,4.5,0,0,1-1.493.48c-.078,0-.138.007-.188.009a4.864,4.864,0,0,1-1.038-.14c-.9-.25-1.277-1-1.729-1.456a1.621,1.621,0,0,0-.71-.5s-.034-.062.512-.016.978.126,2.565.227c2.563.158,4.319-1.621,3.277-3.465s-3.745-2.255-6.058-1.649c-1.38.363-3.135,1.192-5.56,1.711a2.634,2.634,0,0,1-1.594-.161c-.23-.113-.572-.79.916-.8,2.891-.028,3.683-1.52,3.778-1.713a4.418,4.418,0,0,1-2.094.51.328.328,0,0,1-.131-.037c-.4-.23-.434-.694-1.258-.795.448.448.429.852.225.923a.29.29,0,0,1-.347-.09,1.01,1.01,0,0,0-1.15-.4s.533.179.416.439c-.025.037-.09.044-.152.048a.376.376,0,0,1-.154-.021.71.71,0,0,0-.928.168s.381-.078.457.09c-.581.294-1.024.751-.921,1.35.211,1.235,1.575,1.536,3.036,1.373,1.734-.191,3.213-.981,5.677-1.718s4.726.06,5.1,1.522c.2.76-.452,1.915-2.462,1.826-2.067-.09-2.505-.386-5.488-.749a21.044,21.044,0,0,0-3.557-.011,8.051,8.051,0,0,1-1.764-.062c-.59-.092-2.161-.4-2.172-.834-.011-.374.79-.528.79-.528s-.753-.156-.8-.625a3.873,3.873,0,0,0-.223-1.026.762.762,0,0,0,.055-.09.96.96,0,0,0-.062-1,1,1,0,0,0-.815.3,2.923,2.923,0,0,0-1.19-.278v0h-.028v0a2.849,2.849,0,0,0-1.242.308,1,1,0,0,0-.84-.333.962.962,0,0,0-.06,1,1.391,1.391,0,0,0,.106.175,3.311,3.311,0,0,0-.2.969c-.032.416-.776.609-.776.609s.84.2.776.565c-.083.466-.824.735-.824.735s.76.067.85.462c.039.172-.11.324-.3.549a8.467,8.467,0,0,1-2.85-.689,17.188,17.188,0,0,1-1.527-.857,8.655,8.655,0,0,1-1.318-1.369,1.81,1.81,0,0,0-.248-.441.868.868,0,0,0-.716-.3c-.073-.117-.161-.246-.2-.292-.2-.273-.857-.188-1.332-.08a.767.767,0,0,0-.142-.145c-.315-.237-.884.253-.884.253s.425-.057.512.073l.37-.14a.441.441,0,0,0-.2.388c.023.039.048.078.08.126a2.67,2.67,0,0,1,1.373-.106,2.851,2.851,0,0,0-.65.315l-.051-.039c-.374-.248-.99.218-.99.218a1.334,1.334,0,0,1,.6.1l.051.044.292-.248a.74.74,0,0,0-.1.457l.044.06.1.11s1.419-.427,1.807-.018a1.632,1.632,0,0,0-1.091.273l-.032-.023c-.372-.25-.99.216-.99.216a1.364,1.364,0,0,1,.6.108c.018.014.034.032.053.048l.232-.216a.787.787,0,0,0-.09.485,1.383,1.383,0,0,0,.289.471c.331.335.8.227,1.247.632l.315.271a.583.583,0,0,1,.241.363.4.4,0,0,1-.168.319c.535-.108.992-.016,1.082.241.062.186-.083.413-.358.606.615-.239,1.206-.2,1.332.08.1.216-.1.519-.466.765l.025-.011c.627-.305,1.27-.3,1.435.016.14.269-.108.671-.572.971h0l.037-.018a1.614,1.614,0,0,1,1.4-.17,6.718,6.718,0,0,0,1.408-1.162,5.538,5.538,0,0,1-1.265,1.764c-.177.177-1.343,1.16-1.545,1.353-.987.8-2.014,1.676-2.092,1.711-.241.108-.563.356-.785.351a2.672,2.672,0,0,0-.544-.113.533.533,0,0,0-.471.312,3.135,3.135,0,0,0-.386-.041c-.28-.025-.537.317-.712.71a1.6,1.6,0,0,0-.092.613,1,1,0,0,0,.37.034,2.254,2.254,0,0,1,.751-1.2,2.771,2.771,0,0,0-.294,1.2,3.513,3.513,0,0,0,.487-.009c0-.354.441-1.316.923-1.277.032,0,.067.009.106.016-.416.147-.5,1.277-.5,1.277a7.338,7.338,0,0,0,1.821-.041c.517-.156.475-.294.638-.592a1.243,1.243,0,0,1,.351-.441A.974.974,0,0,1,59,29.267a.408.408,0,0,1,.227.285c.126-.51.413-.868.694-.834.2.025.354.248.416.567.039-.634.324-1.13.648-1.118.246.011.446.31.521.733l0-.028c-.018-.673.266-1.226.632-1.235.315-.007.588.386.673.921l0-.051c-.051-.735.257-1.355.691-1.382.3-.018.588.259.746.682.009-.374.51-.723,1.146-.792a1.623,1.623,0,0,1,.234-.009,2.18,2.18,0,0,0,.863-.133c.71-.475.877-1.258,2.393-2.053a11.727,11.727,0,0,1,1.984-.611,5.328,5.328,0,0,1,1.906-.259l.044.014a1.47,1.47,0,0,1,.455.248l0,0a5.877,5.877,0,0,1,.971,1.217c.135.246.041.122.519.459a6.671,6.671,0,0,0,1.548.728,22.588,22.588,0,0,0,2.891.413.281.281,0,0,1,.053.021,1.483,1.483,0,0,1,.558,1.7c-.115.234-.3.514-.563.512a3.346,3.346,0,0,0-.574-.113.574.574,0,0,0-.494.3c-.11-.018-.241-.032-.3-.037-.3-.021-.569.305-.753.684a1.409,1.409,0,0,0-.1.588,1.106,1.106,0,0,0,.39.034,1.974,1.974,0,0,1,.668-1.121,2.445,2.445,0,0,0-.292,1.123,3.5,3.5,0,0,0,.51-.009c.007-.3.468-1.261.976-1.226.032,0,.071.009.11.016-.436.142-.53,1.226-.53,1.226a9.443,9.443,0,0,0,2-.032c.512-.147.68-.958.733-1.231a2.3,2.3,0,0,0,.034-.317c-.032-.347-.044-.772-.044-1.258,0-.739.282-1.33.684-1.35h.053c-.494-.119-.834-.349-.818-.595" transform="translate(-45.472 -11.241)" fill="#fff"/>
    <path id="Tracé_92" data-name="Tracé 92" d="M65.658,22.623c-.067-.018-.14-.039-.214-.062-.634-.135-1.187-.439-1.187-.7,0-.248.436-.519.99-.654a2.694,2.694,0,0,0-.142-.237,2.294,2.294,0,0,0-1.091-1.01,1.678,1.678,0,0,0-.553.032c-.705.158-1.458.3-1.63.622a1.685,1.685,0,0,0,.237,1.94c.441.592.643.82.388,1.116-.333.326-.762.638-.9.769-.239.227-.379.466-.618.459a2.652,2.652,0,0,0-.51-.106.5.5,0,0,0-.439.282c-.1-.016-.225-.028-.282-.032-.287-.021-.549.294-.728.659a1.408,1.408,0,0,0-.094.569,1.1,1.1,0,0,0,.379.032,1.888,1.888,0,0,1,.641-1.077,2.5,2.5,0,0,0-.259,1.079,2.769,2.769,0,0,0,.455-.009c0-.262.416-1.217.868-1.183.03,0,.062.009.1.016-.39.135-.473,1.185-.473,1.185a6.947,6.947,0,0,0,1.708-.037c.45-.133.5-.246.579-.494a.849.849,0,0,1,.186-.441c.466-.59,1.063-.9,1.394-.677l.09.057c-.161-.292-.2-.553-.062-.7.158-.177.521-.165.93.007l.011,0c-.5-.214-.815-.553-.749-.87s.457-.5.971-.524" transform="translate(-36.836 -6.955)" fill="#fff"/>
    <path id="Tracé_93" data-name="Tracé 93" d="M66.195,29.554c-.175.2.037.677.276,1.054-.728-.071-1.511.17-1.573.6a.626.626,0,0,0,0,.067.646.646,0,0,1-.129-.328c.037-.383.567-.673,1.206-.611a1,1,0,0,1-.1-.942.659.659,0,0,1,.818-.308.959.959,0,0,1-.5-.921c.034-.186.386-.232.423-.241a.342.342,0,0,0-.131.2c-.062.3.3.822.82,1.215-.579-.073-.928,0-1.107.216M63.97,28.7h-.028c-.537-.007-.625-.485-.8-.822-.129-.241-.237-.671-.158-.618a1.014,1.014,0,0,0,.981-.016,1.015,1.015,0,0,0,.985.016c.076-.053-.03.377-.158.618-.181.342-.257.831-.818.822m-1.5-2.776a.558.558,0,0,1-.181-.25,2.206,2.206,0,0,1,.776-.076c.347.034.491.122.489.147a.477.477,0,0,1-.56.4.709.709,0,0,1-.524-.225m1.495.728c.149,0,.528-.053.528-.053a.047.047,0,0,1,.044.034.041.041,0,0,1-.021.051l-.521.3-.025.007-.018,0-.547-.3a.045.045,0,0,1-.023-.051.047.047,0,0,1,.046-.037s.388.053.537.053m.886-1.054a2.215,2.215,0,0,1,.776.076.578.578,0,0,1-.181.25.712.712,0,0,1-.524.225.478.478,0,0,1-.56-.4c0-.025.14-.113.489-.147M81.5,32.589c.012-.177.2-.333.5-.432l.048-.028c-.5.094-.921,0-1.059-.273A.711.711,0,0,1,81.2,31.1l.011-.028a4.5,4.5,0,0,1-1.493.48c-.078,0-.138.007-.188.009a4.863,4.863,0,0,1-1.038-.14c-.9-.25-1.277-1-1.729-1.456a1.621,1.621,0,0,0-.71-.5s-.034-.062.512-.016.978.126,2.565.227c2.563.158,4.319-1.621,3.277-3.465s-3.745-2.255-6.058-1.649c-1.38.363-3.135,1.192-5.56,1.711a2.634,2.634,0,0,1-1.594-.161c-.23-.113-.572-.79.916-.8,2.891-.028,3.683-1.52,3.778-1.713a4.417,4.417,0,0,1-2.094.51.328.328,0,0,1-.131-.037c-.4-.23-.434-.694-1.258-.795.448.448.429.852.225.923a.29.29,0,0,1-.347-.09,1.01,1.01,0,0,0-1.15-.4s.533.179.416.439c-.025.037-.09.044-.152.048a.376.376,0,0,1-.154-.021.71.71,0,0,0-.928.168s.381-.078.457.09c-.581.294-1.024.751-.921,1.35.211,1.235,1.575,1.536,3.036,1.373,1.734-.191,3.213-.981,5.677-1.718s4.726.06,5.1,1.522c.2.76-.452,1.917-2.462,1.826-2.067-.09-2.505-.386-5.488-.749a21.043,21.043,0,0,0-3.557-.011,8.222,8.222,0,0,1-1.764-.06c-.59-.094-2.161-.4-2.172-.836-.011-.374.79-.528.79-.528s-.753-.156-.8-.625a3.873,3.873,0,0,0-.223-1.026.763.763,0,0,0,.055-.09.96.96,0,0,0-.062-1,1,1,0,0,0-.815.305,2.9,2.9,0,0,0-1.19-.28v0h-.028v0a2.849,2.849,0,0,0-1.242.308,1,1,0,0,0-.84-.333.962.962,0,0,0-.06,1,1.241,1.241,0,0,0,.106.175,3.311,3.311,0,0,0-.2.969c-.032.416-.776.609-.776.609s.84.2.776.567c-.083.464-.824.733-.824.733s.76.067.85.462c.039.172-.11.324-.3.549a8.467,8.467,0,0,1-2.85-.689,17.19,17.19,0,0,1-1.527-.857,8.655,8.655,0,0,1-1.318-1.369,1.81,1.81,0,0,0-.248-.441.868.868,0,0,0-.716-.3c-.073-.117-.161-.246-.2-.292-.2-.273-.857-.188-1.332-.08a.767.767,0,0,0-.142-.145c-.315-.237-.884.253-.884.253s.425-.057.512.073l.37-.14a.441.441,0,0,0-.2.388c.023.039.048.078.08.126a2.67,2.67,0,0,1,1.373-.106,2.851,2.851,0,0,0-.65.315l-.051-.039c-.374-.248-.99.218-.99.218a1.334,1.334,0,0,1,.6.1l.051.044.292-.246a.736.736,0,0,0-.1.455l.044.06.1.11s1.419-.427,1.807-.018a1.632,1.632,0,0,0-1.091.273l-.032-.023c-.372-.25-.99.216-.99.216a1.364,1.364,0,0,1,.6.108c.018.014.034.032.053.048l.232-.216a.787.787,0,0,0-.09.485,1.383,1.383,0,0,0,.289.471c.331.335.8.227,1.247.631l.315.271a.583.583,0,0,1,.241.363.4.4,0,0,1-.168.319c.535-.108.992-.016,1.082.241.062.186-.083.413-.358.606.615-.239,1.206-.2,1.332.08.1.216-.1.519-.466.765l.025-.011c.627-.305,1.27-.3,1.435.018.14.266-.108.668-.572.969h0l.037-.018a1.614,1.614,0,0,1,1.4-.17,6.718,6.718,0,0,0,1.408-1.162,5.538,5.538,0,0,1-1.265,1.764c-.177.177-1.343,1.16-1.545,1.353-.987.8-2.014,1.676-2.092,1.711-.241.108-.563.356-.785.351a2.672,2.672,0,0,0-.544-.113.533.533,0,0,0-.471.312,3.136,3.136,0,0,0-.386-.041c-.28-.025-.537.317-.712.71a1.6,1.6,0,0,0-.092.613,1,1,0,0,0,.37.034,2.241,2.241,0,0,1,.751-1.2,2.756,2.756,0,0,0-.294,1.2,3.513,3.513,0,0,0,.487-.009c0-.354.441-1.316.923-1.277.032,0,.067.009.106.016-.416.147-.5,1.277-.5,1.277a7.337,7.337,0,0,0,1.821-.041c.517-.156.475-.294.638-.592a1.243,1.243,0,0,1,.351-.441A.974.974,0,0,1,59,35.91a.408.408,0,0,1,.227.285c.126-.51.413-.868.694-.834.2.025.354.248.416.567.039-.634.324-1.13.648-1.118.246.011.446.31.521.733l0-.028c-.018-.673.266-1.226.632-1.235.315-.007.588.386.673.923l0-.053c-.051-.735.257-1.355.691-1.382.3-.018.588.259.746.682.009-.374.51-.723,1.146-.792a1.623,1.623,0,0,1,.234-.009,2.18,2.18,0,0,0,.863-.133c.71-.475.877-1.258,2.393-2.053a11.727,11.727,0,0,1,1.984-.611,5.328,5.328,0,0,1,1.906-.259l.044.014a1.52,1.52,0,0,1,.455.248l0,0a5.877,5.877,0,0,1,.971,1.217c.135.246.041.122.519.459a6.671,6.671,0,0,0,1.548.728,22.588,22.588,0,0,0,2.891.413.281.281,0,0,1,.053.021,1.483,1.483,0,0,1,.558,1.7c-.115.234-.3.514-.563.512a3.346,3.346,0,0,0-.574-.113.574.574,0,0,0-.494.3c-.11-.018-.241-.03-.3-.037-.3-.021-.569.305-.753.684a1.409,1.409,0,0,0-.1.588,1.106,1.106,0,0,0,.39.034,1.974,1.974,0,0,1,.668-1.121,2.445,2.445,0,0,0-.292,1.123,3.5,3.5,0,0,0,.51-.009c.007-.3.468-1.261.976-1.226.032,0,.071.009.11.016-.436.142-.53,1.226-.53,1.226a9.443,9.443,0,0,0,2-.032c.512-.147.68-.958.733-1.231a2.3,2.3,0,0,0,.034-.317c-.032-.347-.044-.772-.044-1.258,0-.739.282-1.33.684-1.35h.053c-.494-.119-.834-.349-.818-.595" transform="translate(-45.472 -2.629)" fill="#fff"/>
    <path id="Tracé_94" data-name="Tracé 94" d="M65.658,29.266l-.214-.06c-.634-.138-1.187-.441-1.187-.707,0-.248.436-.517.99-.654a2.369,2.369,0,0,0-.142-.234A2.29,2.29,0,0,0,64.014,26.6a1.678,1.678,0,0,0-.553.032c-.705.158-1.458.3-1.63.622a1.685,1.685,0,0,0,.237,1.94c.441.592.643.82.388,1.116-.333.326-.762.638-.9.769-.239.227-.379.466-.618.459a2.651,2.651,0,0,0-.51-.106.5.5,0,0,0-.439.282c-.1-.018-.225-.028-.282-.032-.287-.021-.549.294-.728.659a1.408,1.408,0,0,0-.094.57,1.1,1.1,0,0,0,.379.032,1.888,1.888,0,0,1,.641-1.077,2.5,2.5,0,0,0-.259,1.079,3.108,3.108,0,0,0,.455-.007c0-.264.416-1.219.868-1.183a.618.618,0,0,1,.1.014c-.39.135-.473,1.185-.473,1.185a6.947,6.947,0,0,0,1.708-.037c.45-.133.5-.246.579-.494a.857.857,0,0,1,.186-.441c.466-.59,1.063-.893,1.394-.677l.09.057c-.161-.292-.2-.553-.062-.7.158-.177.521-.165.93.007l.011,0c-.5-.214-.815-.553-.749-.87s.457-.5.971-.524" transform="translate(-36.836 1.657)" fill="#fff"/>
  </g>
</svg>
