<?xml version="1.0" encoding="utf-8"?>
<svg id="Groupe_49" data-name="Groupe 49" xmlns="http://www.w3.org/2000/svg" width="59.671" height="63.465" viewBox="0 0 59.671 63.465">
  <g id="Groupe_44" data-name="Groupe 44" transform="translate(0 48.114)">
    <path id="Tracé_230" data-name="Tracé 230" d="M87.227,37.321c1.286,1.511,1.405,2,1.405,3.063a1.9,1.9,0,0,1-2.007,2.1c-1.431,0-2.126-.962-2.126-2.407,0-.2.067-.335.269-.335h1.056c.2,0,.266.067.266.269,0,.4,0,.948.468.948s.468-.427.468-.923-.4-1.056-1.109-1.885c-1.286-1.511-1.419-2.007-1.419-3.063a1.9,1.9,0,0,1,2.007-2.1c1.431,0,2.126.964,2.126,2.409,0,.2-.067.333-.266.333H87.307c-.2,0-.266-.067-.266-.266,0-.4,0-.951-.468-.951s-.468.429-.468.923C86.1,35.943,86.52,36.489,87.227,37.321Z" transform="translate(-84.499 -32.985)" fill="#fff"/>
    <path id="Tracé_231" data-name="Tracé 231" d="M86.591,42.112v-8.83c0-.2.067-.269.266-.269h2.889c.2,0,.269.067.269.269v.99c0,.2-.067.266-.269.266H88.463c-.266,0-.266,0-.266.269v1.605c0,.266,0,.266.266.266h1.284c.2,0,.269.069.269.269v.99c0,.2-.067.269-.269.269H88.463c-.266,0-.266,0-.266.266v2.115c0,.266,0,.266.266.266h1.284c.2,0,.269.067.269.269v.99c0,.2-.067.266-.269.266H86.857C86.724,42.379,86.591,42.379,86.591,42.112Z" transform="translate(-81.787 -32.947)" fill="#fff"/>
    <path id="Tracé_232" data-name="Tracé 232" d="M88.461,42.112v-8.83c0-.2.067-.269.266-.269H89.8c.2,0,.269.067.269.269v8.83c0,.266-.135.266-.269.266h-1.07C88.594,42.379,88.461,42.379,88.461,42.112Z" transform="translate(-79.363 -32.947)" fill="#fff"/>
    <path id="Tracé_233" data-name="Tracé 233" d="M92.549,42.218l-1.3-3.8c-.028-.094-.108-.067-.108,0v3.693c0,.2-.067.266-.266.266h-1.07c-.2,0-.269-.067-.269-.266v-8.83c0-.2.069-.269.269-.269h.937c.147,0,.214.028.266.175l1.3,3.84c.028.08.108.067.108,0V33.283c0-.2.067-.269.266-.269h1.07c.2,0,.269.067.269.269v8.83c0,.2-.067.266-.269.266h-.935A.244.244,0,0,1,92.549,42.218Z" transform="translate(-77.967 -32.947)" fill="#fff"/>
    <path id="Tracé_234" data-name="Tracé 234" d="M91.869,42.112v-8.83c0-.2.067-.269.266-.269h2.889c.2,0,.269.067.269.269v.99c0,.2-.067.266-.269.266H93.741c-.266,0-.266,0-.266.269v1.605c0,.266,0,.266.266.266h1.284c.2,0,.269.069.269.269v.99c0,.2-.067.269-.269.269H93.741c-.266,0-.266,0-.266.266v2.115c0,.266,0,.266.266.266h1.284c.2,0,.269.067.269.269v.99c0,.2-.067.266-.269.266H92.135C92,42.379,91.869,42.379,91.869,42.112Z" transform="translate(-74.945 -32.947)" fill="#fff"/>
    <path id="Tracé_235" data-name="Tracé 235" d="M94.005,35.216h1.371c.2,0,.266.069.266.269v.99c0,.2-.067.266-.266.266H94.005c-.2,0-.266-.067-.266-.266v-.99C93.739,35.285,93.806,35.216,94.005,35.216Z" transform="translate(-72.521 -30.093)" fill="#fff"/>
    <path id="Tracé_236" data-name="Tracé 236" d="M98.986,42.379a.233.233,0,0,1-.266-.266V38.42c0-.067-.067-.067-.08-.014l-.429,1.231c-.053.188-.161.188-.333.188h-.521c-.136,0-.241,0-.3-.188l-.427-1.231c-.014-.053-.08-.053-.08.014v3.693c0,.2-.067.266-.269.266h-1.07c-.2,0-.266-.067-.266-.266v-8.83c0-.2.067-.269.266-.269h.937c.161,0,.214.041.255.161l1.178,3.5a.054.054,0,0,0,.106,0l1.178-3.53c.039-.108.106-.135.253-.135h.937c.2,0,.269.067.269.269v8.83c0,.2-.08.266-.269.266Z" transform="translate(-70.954 -32.947)" fill="#fff"/>
    <path id="Tracé_237" data-name="Tracé 237" d="M100.934,42.379c-.172,0-.253,0-.294-.2l-.161-1.056c-.053-.269-.053-.269-.294-.269h-.507c-.241,0-.241,0-.294.269l-.161,1.056c-.041.2-.122.2-.3.2H97.818c-.133,0-.269,0-.227-.227l1.552-8.9c.039-.2.08-.241.294-.241h.99c.214,0,.255.041.294.241l1.552,8.9c.039.227-.094.227-.227.227Zm-1.323-3.116c-.041.266-.041.266.227.266h.186c.269,0,.269,0,.227-.266l-.266-1.78a.054.054,0,0,0-.108,0Z" transform="translate(-67.538 -32.947)" fill="#fff"/>
    <path id="Tracé_238" data-name="Tracé 238" d="M103.387,38.353l.668,3.745c.041.214-.08.28-.186.28h-1.084c-.174,0-.255,0-.294-.2l-.576-3.291H101.8c-.269,0-.269,0-.269.266v2.958c0,.2-.067.266-.266.266h-1.07c-.2,0-.269-.067-.269-.266v-8.83c0-.2.067-.269.269-.269H101.8c1.336,0,2.273.671,2.273,2.675v.524A2.865,2.865,0,0,1,103.387,38.353Zm-1.86-1.192c0,.269,0,.269.269.269.668,0,.668-.682.668-1.364v-.227c0-.684,0-1.366-.668-1.366-.269,0-.269,0-.269.269Z" transform="translate(-64.505 -32.947)" fill="#fff"/>
    <path id="Tracé_239" data-name="Tracé 239" d="M102.107,42.112v-8.83c0-.2.067-.269.266-.269h1.07c.2,0,.269.067.269.269v8.83c0,.266-.133.266-.269.266h-1.07C102.24,42.379,102.107,42.379,102.107,42.112Z" transform="translate(-61.672 -32.947)" fill="#fff"/>
    <path id="Tracé_240" data-name="Tracé 240" d="M103.395,33.014h3.477c.2,0,.269.067.269.269v.923c0,.2-.067.266-.269.266H106.2c-.266,0-.266,0-.266.269v7.371c0,.266-.135.266-.269.266H104.6c-.133,0-.266,0-.266-.266V34.741c0-.269,0-.269-.255-.269h-.682c-.269,0-.269-.133-.269-.266v-.923C103.126,33.149,103.126,33.014,103.395,33.014Z" transform="translate(-60.351 -32.947)" fill="#fff"/>
    <path id="Tracé_241" data-name="Tracé 241" d="M105.194,42.112v-8.83c0-.2.069-.269.269-.269h1.07c.2,0,.266.067.266.269v8.83c0,.266-.133.266-.266.266h-1.07C105.329,42.379,105.194,42.379,105.194,42.112Z" transform="translate(-57.671 -32.947)" fill="#fff"/>
    <path id="Tracé_242" data-name="Tracé 242" d="M110.311,42.379a.234.234,0,0,1-.266-.266V38.42c0-.067-.067-.067-.08-.014l-.427,1.231c-.055.188-.161.188-.335.188h-.521c-.135,0-.241,0-.294-.188l-.429-1.231c-.014-.053-.08-.053-.08.014v3.693c0,.2-.067.266-.266.266h-1.07c-.2,0-.269-.067-.269-.266v-8.83c0-.2.067-.269.269-.269h.935c.161,0,.216.041.255.161l1.178,3.5a.054.054,0,0,0,.106,0l1.178-3.53c.041-.108.108-.135.255-.135h.935c.2,0,.269.067.269.269v8.83c0,.2-.08.266-.269.266Z" transform="translate(-56.273 -32.947)" fill="#fff"/>
    <path id="Tracé_243" data-name="Tracé 243" d="M108.993,42.112v-8.83c0-.2.067-.269.266-.269h2.891c.2,0,.266.067.266.269v.99c0,.2-.067.266-.266.266h-1.286c-.266,0-.266,0-.266.269v1.605c0,.266,0,.266.266.266h1.286c.2,0,.266.069.266.269v.99c0,.2-.067.269-.266.269h-1.286c-.266,0-.266,0-.266.266v2.115c0,.266,0,.266.266.266h1.286c.2,0,.266.067.266.269v.99c0,.2-.067.266-.266.266h-2.891C109.126,42.379,108.993,42.379,108.993,42.112Z" transform="translate(-52.746 -32.947)" fill="#fff"/>
  </g>
  <g id="Groupe_45" data-name="Groupe 45" transform="translate(0 59.579)">
    <path id="Tracé_244" data-name="Tracé 244" d="M85.581,39.16H84.5l.067-.262h1.086Z" transform="translate(-84.499 -36.785)" fill="#fff"/>
    <path id="Tracé_245" data-name="Tracé 245" d="M88.74,40.645c-.028.147-.126.6-.17.744H86.423v-.131c.4-.03.436-.062.436-.466V38.9c0-.4-.032-.427-.416-.455V38.31h1.235v.133c-.374.028-.416.053-.416.455v1.872c0,.257.023.351.108.4a1.089,1.089,0,0,0,.455.06c.262,0,.423-.023.53-.147a1.335,1.335,0,0,0,.241-.464Z" transform="translate(-82.005 -37.548)" fill="#fff"/>
    <path id="Tracé_246" data-name="Tracé 246" d="M90.35,40.641c-.028.156-.122.6-.165.749H87.9v-.131c.429-.034.468-.071.468-.455V38.916c0-.425-.039-.441-.409-.473V38.31h2.115c0,.119.023.441.037.682l-.138.025a1.2,1.2,0,0,0-.152-.409c-.067-.1-.193-.133-.535-.133h-.361c-.147,0-.156.011-.156.152V39.7h.445c.427,0,.45-.039.512-.356h.138v.909H89.73c-.062-.34-.094-.37-.508-.37h-.45v.9c0,.223.03.324.115.386a1.092,1.092,0,0,0,.491.06c.361,0,.494-.037.6-.161a1.333,1.333,0,0,0,.232-.446Z" transform="translate(-80.087 -37.548)" fill="#fff"/>
    <path id="Tracé_247" data-name="Tracé 247" d="M91.688,38.31a1.876,1.876,0,0,1,1.341.4,1.394,1.394,0,0,1,.4,1.017A1.5,1.5,0,0,1,92.846,41a2.23,2.23,0,0,1-1.408.393H90.315v-.126c.406-.03.445-.057.445-.459V38.9c0-.406-.039-.427-.4-.455V38.31Zm-.521,2.459c0,.361.156.45.5.45A1.274,1.274,0,0,0,92.963,39.8a1.247,1.247,0,0,0-.558-1.132,1.473,1.473,0,0,0-.806-.2.789.789,0,0,0-.37.057c-.048.034-.062.085-.062.271Z" transform="translate(-76.959 -37.548)" fill="#fff"/>
    <path id="Tracé_248" data-name="Tracé 248" d="M94.637,41.071c-.028.156-.122.6-.165.749H92.187v-.131c.432-.034.471-.071.471-.455V39.347c0-.425-.039-.441-.409-.473V38.74h2.115c0,.119.023.441.037.682l-.138.025a1.2,1.2,0,0,0-.152-.409c-.067-.1-.193-.133-.535-.133h-.361c-.147,0-.156.011-.156.152v1.077h.446c.427,0,.45-.039.512-.356h.138v.909h-.138c-.062-.34-.094-.37-.508-.37h-.45v.9c0,.223.028.324.115.386a1.092,1.092,0,0,0,.491.06c.361,0,.494-.037.6-.161a1.376,1.376,0,0,0,.232-.446Zm-.553-2.795-.877.3-.062-.119c.257-.161.526-.34.744-.482.057.009.191.2.2.259Z" transform="translate(-74.532 -37.978)" fill="#fff"/>
    <path id="Tracé_249" data-name="Tracé 249" d="M94.964,38.31a1.307,1.307,0,0,1,.795.2.787.787,0,0,1,.308.668.974.974,0,0,1-.923.971,1.652,1.652,0,0,1-.214,0l-.349-.09V40.8c0,.4.041.425.468.455v.131H93.765v-.131c.379-.03.416-.067.416-.462V38.9c0-.416-.037-.436-.388-.459V38.31ZM94.58,39.9a1.036,1.036,0,0,0,.344.055.75.75,0,0,0-.028-1.5.456.456,0,0,0-.266.057c-.037.032-.051.09-.051.223Z" transform="translate(-72.487 -37.548)" fill="#fff"/>
    <path id="Tracé_250" data-name="Tracé 250" d="M97.026,41.43V41.3c.3-.039.34-.076.28-.262s-.156-.441-.262-.73H96.036c-.076.214-.147.413-.209.613-.106.3-.062.344.294.379v.131H95.092V41.3c.3-.044.365-.071.53-.489l.981-2.487.147-.044c.294.815.611,1.715.914,2.54.154.409.214.45.521.48v.131Zm-.464-2.535h-.009c-.152.409-.3.82-.445,1.21h.87Z" transform="translate(-70.767 -37.588)" fill="#fff"/>
    <path id="Tracé_251" data-name="Tracé 251" d="M99.732,41.428c-.057,0-.108,0-.165,0a.866.866,0,0,1-.769-.432c-.165-.232-.335-.526-.478-.758-.08-.133-.161-.191-.406-.191h-.152V40.8c0,.4.041.432.42.462v.131H96.935v-.131c.39-.03.432-.057.432-.462v-1.9c0-.4-.037-.418-.406-.45V38.31h1.176a1.354,1.354,0,0,1,.758.161.715.715,0,0,1,.312.622.864.864,0,0,1-.6.811c.08.156.28.473.423.687a3.852,3.852,0,0,0,.383.491.661.661,0,0,0,.34.223Zm-1.743-1.541a.78.78,0,0,0,.514-.131.68.68,0,0,0,.262-.588.642.642,0,0,0-.7-.7.479.479,0,0,0-.257.048c-.032.023-.051.08-.051.209v1.164Z" transform="translate(-68.377 -37.548)" fill="#fff"/>
    <path id="Tracé_252" data-name="Tracé 252" d="M101.05,39.111a1.2,1.2,0,0,0-.152-.423c-.076-.113-.156-.147-.512-.147h-.338v2.333c0,.374.039.42.489.45v.131H99.179v-.131c.429-.03.468-.076.468-.45V38.541h-.294c-.393,0-.489.039-.549.147a1.423,1.423,0,0,0-.152.423h-.138c.023-.285.046-.592.057-.852h.094c.067.108.126.117.259.117H100.8a.254.254,0,0,0,.243-.117h.1c0,.216.023.563.046.838Z" transform="translate(-66.329 -37.614)" fill="#fff"/>
    <path id="Tracé_253" data-name="Tracé 253" d="M102.621,40.641c-.028.156-.122.6-.165.749h-2.283v-.131c.429-.034.468-.071.468-.455V38.916c0-.425-.039-.441-.409-.473V38.31h2.115c0,.119.023.441.037.682l-.138.025a1.2,1.2,0,0,0-.152-.409c-.067-.1-.193-.133-.535-.133H101.2c-.147,0-.156.011-.156.152V39.7h.445c.427,0,.45-.039.512-.356h.138v.909H102c-.062-.34-.094-.37-.508-.37h-.45v.9c0,.223.03.324.115.386a1.092,1.092,0,0,0,.491.06c.361,0,.494-.037.6-.161a1.333,1.333,0,0,0,.232-.446Z" transform="translate(-64.18 -37.548)" fill="#fff"/>
    <path id="Tracé_254" data-name="Tracé 254" d="M104.431,41.389v-.131c.383-.039.4-.062.4-.565l-.014-1.934H104.8l-1.157,2.6h-.094l-1.061-2.531h-.009l-.071,1.35c-.018.388-.018.6-.014.788.009.227.122.259.436.294v.131h-1.1v-.131c.273-.034.37-.085.4-.285.025-.165.053-.374.09-.868l.067-.985c.044-.615.021-.634-.411-.677V38.31h.776l1.082,2.37,1.093-2.37h.806v.133c-.418.037-.45.048-.436.535l.048,1.715c.014.5.028.526.441.565v.131Z" transform="translate(-62.173 -37.548)" fill="#fff"/>
    <path id="Tracé_255" data-name="Tracé 255" d="M106.4,40.641c-.028.156-.122.6-.165.749h-2.285v-.131c.432-.034.471-.071.471-.455V38.916c0-.425-.039-.441-.409-.473V38.31h2.113c0,.119.025.441.039.682l-.138.025a1.2,1.2,0,0,0-.152-.409c-.067-.1-.2-.133-.535-.133h-.361c-.147,0-.156.011-.156.152V39.7h.445c.427,0,.45-.039.512-.356h.138v.909h-.138c-.062-.34-.094-.37-.508-.37h-.45v.9c0,.223.028.324.113.386a1.109,1.109,0,0,0,.494.06c.361,0,.494-.037.6-.161a1.375,1.375,0,0,0,.232-.446Z" transform="translate(-59.286 -37.548)" fill="#fff"/>
    <path id="Tracé_256" data-name="Tracé 256" d="M108.8,38.443c-.266.014-.379.076-.4.285a6.77,6.77,0,0,0-.028.795v1.911h-.147l-2.019-2.482H106.2v1.19c0,.436.014.664.028.8.025.243.133.3.455.319v.131h-1.123v-.131c.276-.016.395-.076.418-.31.014-.145.028-.372.028-.808V39.1c0-.347-.009-.365-.094-.48a.515.515,0,0,0-.423-.175V38.31h.7l1.975,2.379h.014V39.522a7.247,7.247,0,0,0-.032-.785c-.023-.214-.138-.276-.464-.294V38.31H108.8Z" transform="translate(-57.295 -37.548)" fill="#fff"/>
    <path id="Tracé_257" data-name="Tracé 257" d="M109.952,39.111a1.2,1.2,0,0,0-.152-.423c-.076-.113-.158-.147-.512-.147h-.338v2.333c0,.374.039.42.489.45v.131h-1.359v-.131c.429-.03.468-.076.468-.45V38.541h-.294c-.395,0-.489.039-.551.147a1.568,1.568,0,0,0-.152.423h-.135c.023-.285.046-.592.055-.852h.1c.064.108.126.117.259.117H109.7a.25.25,0,0,0,.241-.117h.1c0,.216.023.563.048.838Z" transform="translate(-54.789 -37.614)" fill="#fff"/>
    <path id="Tracé_258" data-name="Tracé 258" d="M111.062,39.16h-1.079l.067-.262h1.084Z" transform="translate(-51.462 -36.785)" fill="#fff"/>
  </g>
  <g id="Groupe_48" data-name="Groupe 48" transform="translate(8.951)">
    <g id="Groupe_47" data-name="Groupe 47">
      <g id="Groupe_46" data-name="Groupe 46">
        <path id="Tracé_259" data-name="Tracé 259" d="M130.166,32.919A20.877,20.877,0,0,0,96.207,16.64H107.2c.657,0,.875.218.875.877v2.668a4.545,4.545,0,0,1-.131.964l-5.553,25.26c-.177.834-.526.877-.964.877H97.8c-.439,0-.831-.175-.657-.877l5.6-24.254c.087-.393-.087-.526-.349-.526H93.75c-.654,0-.423-.218-.423-.875V19.448A20.884,20.884,0,0,0,114.69,53.092h-.011c-3.936,0-6.823-2.188-6.823-8.361V30.983c0-6.611,2.407-8.756,6.779-8.756,4.678,0,6.735,3.153,6.735,7.881,0,.657-.22,1.093-.877,1.093H117.04c-.657,0-.873-.218-.873-.875,0-1.706,0-3.107-1.532-3.107s-1.532,1.4-1.532,3.107v3.415a8.722,8.722,0,0,1,1.532-.131c3.934,0,6.777,2.276,6.777,8.361v2.76c0,2.932-.641,4.972-1.741,6.3A20.875,20.875,0,0,0,130.166,32.919Z" transform="translate(-88.397 -12.033)" fill="#fff"/>
      </g>
      <path id="Tracé_260" data-name="Tracé 260" d="M90.989,19.029H99.63c.262,0,.436.133.349.526l-5.6,24.254c-.175.7.218.877.657.877h3.628c.439,0,.788-.044.964-.877l5.553-25.26a4.544,4.544,0,0,0,.131-.964V14.916c0-.659-.218-.877-.875-.877H93.446a20.935,20.935,0,0,0-2.88,2.808v1.307C90.567,18.811,90.335,19.029,90.989,19.029Z" transform="translate(-85.636 -9.432)" fill="none"/>
      <path id="Tracé_261" data-name="Tracé 261" d="M110.426,36.216c0-6.085-2.843-8.361-6.777-8.361a8.722,8.722,0,0,0-1.532.131V24.571c0-1.706,0-3.107,1.532-3.107s1.532,1.4,1.532,3.107c0,.657.216.875.873.875h3.454c.657,0,.877-.436.877-1.093,0-4.728-2.058-7.881-6.735-7.881-4.372,0-6.779,2.145-6.779,8.756V38.976c0,6.173,2.887,8.361,6.823,8.361h.011a20.742,20.742,0,0,0,4.981-2.058c1.1-1.332,1.741-3.371,1.741-6.3Z" transform="translate(-77.412 -6.278)" fill="none"/>
    </g>
    <path id="Tracé_262" data-name="Tracé 262" d="M100.688,23.507c-1.268,0-1.488.7-1.532,2.409v3.941c0,2.188,0,3.589,1.532,3.589s1.532-1.4,1.532-3.589V27.1C102.219,24.559,102.219,23.507,100.688,23.507Z" transform="translate(-74.449 2.842)" fill="#fff"/>
    <path id="Tracé_263" data-name="Tracé 263" d="M102.219,29.856c0,2.188,0,3.589-1.532,3.589s-1.532-1.4-1.532-3.589V25.916c.044-1.708.264-2.409,1.532-2.409,1.532,0,1.532,1.052,1.532,3.589Z" transform="translate(-74.449 2.842)" fill="#fff"/>
  </g>
</svg>
